<?xml version="1.0" encoding="utf-8"?>
<!-- Generator: Adobe Illustrator 16.0.3, SVG Export Plug-In . SVG Version: 6.00 Build 0)  -->
<!DOCTYPE svg PUBLIC "-//W3C//DTD SVG 1.1//EN" "http://www.w3.org/Graphics/SVG/1.1/DTD/svg11.dtd">
<svg version="1.1" xmlns="http://www.w3.org/2000/svg" xmlns:xlink="http://www.w3.org/1999/xlink" x="0px" y="0px" width="960px"
	 height="560px" viewBox="0 0 960 560" enable-background="new 0 0 960 560" xml:space="preserve">
<pattern  width="108.339" height="109.642" patternUnits="userSpaceOnUse" id="ジャイブ" viewBox="47.56 -219.281 108.339 109.642" overflow="visible">
	<g>
		<polygon fill="none" points="47.561,-219.281 155.899,-219.281 155.899,-109.64 47.561,-109.64 		"/>
		<g>
			<path fill="#00427E" d="M135.035-74.945c0.021-0.119,0.125-0.205,0.246-0.207c12.906-0.135,24.754-3.268,33.972-11.515
				c-8.03,5.558-22.942,7.511-31.527,3.618c-0.11-0.05-0.169-0.17-0.142-0.288c0.026-0.118,0.133-0.2,0.254-0.196
				c10.68,0.289,19.279-3.007,25.984-8.965c-6.869-0.422-12.574-4.74-12.557-9.845c0-0.119,0.084-0.222,0.201-0.247
				c0.116-0.025,0.234,0.035,0.283,0.144c1.121,2.489,4.748,3.78,8.583,2.88c4.18-0.98,7-4.189,6.301-7.165
				c-0.472-2.015-2.437-3.403-4.952-3.787c-0.127-0.019-0.22-0.13-0.217-0.258c0.004-0.128,0.103-0.233,0.23-0.245
				c1.068-0.103,2.18-0.106,3.317,0.002c6.49,0.617,11.514,4.596,11.949,9.178c4.712-0.547,8.884-3.156,10.378-6.773
				c0.045-0.108,0.16-0.172,0.275-0.154c0.115,0.02,0.203,0.114,0.213,0.23c0.377,4.752-1.258,7.839-4.97,10.854
				c5.384-2.06,11.444-2.165,17.255,0.538c0.105,0.049,0.164,0.164,0.143,0.279c-0.023,0.115-0.123,0.199-0.24,0.203
				c-4.879,0.19-8.416,1.756-11.73,5.072c18.254-5.134,33.086,6.201,27.953,23.053c-0.035,0.115-0.146,0.19-0.268,0.178
				c-0.121-0.012-0.217-0.107-0.227-0.229c-0.918-9.714-7.703-16.115-17.861-17.076c5.387,2.061,11,6.977,11.557,15.534
				c0.008,0.122-0.072,0.233-0.191,0.263s-0.242-0.029-0.293-0.141c-2.799-6.154-8.297-9.266-14.16-9.813
				c6.334,2.58,10.396,8.602,11.57,16.42c0.02,0.123-0.055,0.242-0.174,0.279c-0.117,0.039-0.246-0.016-0.303-0.125
				c-3.865-7.583-12.156-12.794-22.446-8.813c-10.617,4.109-15.274,16.387-16.304,25.041c-0.015,0.121-0.115,0.215-0.238,0.223
				c-0.122,0.008-0.232-0.074-0.261-0.195c-3.72-15.688,3.583-31.949,16.637-38.84c-7.096,2.003-13.439,6.26-17.027,13.354
				c-8.294,1.019-14.004,3.862-16.857,9.239c-0.057,0.107-0.181,0.16-0.296,0.125c-0.115-0.033-0.191-0.145-0.182-0.266
				c0.183-2.109,0.941-6.33,4.074-8.271c-6.965,0.011-12.506-0.894-17.799-3.013C135.078-74.708,135.012-74.826,135.035-74.945z
				 M164.521-21.475c-0.099-0.066-0.229-0.055-0.315,0.025c-0.086,0.082-0.104,0.211-0.046,0.313
				c1.62,2.797,0.141,6.814-3.051,6.814c-5.721,0-8.471-10.77-7.596-20.594c2.163,5.756,4.033,8.055,7.348,10.795
				c0.094,0.078,0.229,0.078,0.322,0.002c0.094-0.078,0.121-0.209,0.063-0.316c-4.856-9.08-5.897-16.066-5.897-24.086
				c1.463,5.959,3.195,9.322,8.127,14.381c0.086,0.088,0.223,0.102,0.325,0.033c0.102-0.07,0.139-0.203,0.087-0.316
				c-5.298-11.59-4.894-24.447-0.947-34.264c0.039-0.098,0.015-0.209-0.063-0.281c-0.077-0.07-0.189-0.088-0.285-0.041
				c-5.205,2.551-8.264,4.227-12.752,10.389c1.357,7.398,0.229,11.049-3.172,17.195c3.938-9.918,1.842-23.895-8.188-29.592
				c-0.109-0.062-0.248-0.034-0.324,0.064c-0.078,0.1-0.071,0.241,0.016,0.332c3.781,3.955,6.531,10.635,4.156,17.928
				c1.529-10.389-7.596-19.115-17.779-19.115c-9.6,0-16.15,7.51-15.609,14.941c0.537,7.365,5.443,10.969,9.672,12.498
				c0.111,0.039,0.236-0.002,0.3-0.102c0.063-0.102,0.05-0.23-0.033-0.316c-5.61-5.691-6.378-16.492,3.583-19.76
				c-5.859,5.057-3.689,16.83,5.689,17.725c0.117,0.012,0.227-0.059,0.265-0.17s-0.005-0.234-0.104-0.297
				c-2.009-1.277-3.679-3.771-3.679-6.574c0-4.674,3.422-6.51,5.676-6.51c3.422,0,6.26,3.256,6.26,8.18
				c0,5.844-5.26,10.684-12.02,11.436c-6.626,0.734-12.782-2.154-15.75-6.459c-0.069-0.102-0.201-0.139-0.313-0.088
				s-0.171,0.176-0.141,0.295c3.019,11.703,16.796,16.877,26.888,9.506c-6.613,7.502-17.006,7.605-25.722-0.086
				c-0.091-0.08-0.226-0.084-0.322-0.01c-0.097,0.072-0.127,0.205-0.073,0.313c2.667,5.408,9.253,11.82,18.605,10.885
				c8.557-0.855,13.521-9.014,14.523-15.691c0.557,8.521-1.394,14.537-8.754,20.146c-0.097,0.074-0.127,0.207-0.072,0.316
				c0.055,0.107,0.18,0.162,0.297,0.129c6.785-1.961,12.23-5.426,15.049-12.545c0,6.162-2.139,12.373-7.525,16.512
				c-0.098,0.074-0.127,0.205-0.072,0.314s0.179,0.164,0.296,0.131c3.453-0.984,6.171-2.488,8.138-5.186
				c1.311,11.1,6.521,17.691,12.525,17.691c4.125,0,7.205-3.033,7.205-7.871C169.332-15.285,167.843-19.258,164.521-21.475z
				 M263.748-113.094c-3.162-3.904-9.54-5.393-16.432-3.988c0.51-4.301-0.334-8.791-1.611-11.484
				c-0.053-0.109-0.174-0.167-0.291-0.139c-0.117,0.029-0.197,0.137-0.193,0.258c0.375,8.767-4.623,15.844-13.449,18.91
				c6.906-4.756,8.926-14.193,5.639-19.066c-0.068-0.099-0.195-0.138-0.307-0.092c-0.111,0.045-0.176,0.162-0.154,0.279
				c0.373,2.061-0.605,4.685-2.713,6.727c-2.906,2.814-6.85,3.453-8.811,1.43c-1.961-2.025-1.197-5.947,1.707-8.762
				c1.061-1.027,2.26-1.762,3.449-2.185c0.113-0.04,0.182-0.153,0.166-0.271c-0.014-0.119-0.109-0.211-0.229-0.221
				c-6.389-0.555-10.77,3.252-13.516,7.878c-2.795,4.705-7.57,8.41-13.211,7.67c-0.119-0.016-0.232,0.055-0.273,0.168
				c-0.039,0.113,0.006,0.24,0.109,0.302c2.797,1.685,5.871,2.384,9.863,1.052c-5.795,4.909-14.047,7.742-21.84,5.228
				c-0.109-0.036-0.229,0.007-0.291,0.104s-0.051,0.223,0.025,0.308c5.908,6.564,17.689,6.695,25.109,1.373
				c-3.037,4.316-7.068,7.484-14.293,8.479c-0.115,0.016-0.205,0.107-0.219,0.223c-0.012,0.116,0.055,0.226,0.164,0.266
				c8.291,3.078,16.6-0.045,23.445-8.215c-2.992,6.377-7.906,11.484-14.768,14.012c-0.115,0.042-0.184,0.16-0.162,0.279
				c0.02,0.121,0.123,0.21,0.244,0.213c3.943,0.081,7.486-0.857,12.266-3.57c-3.508,5.689-2.74,15.639,2.369,22.258
				c0.07,0.092,0.195,0.124,0.303,0.078c0.105-0.047,0.168-0.159,0.148-0.273c-1.18-7.201,1.299-15.33,5.609-19.643
				c-2.152,7.632-0.006,14.576,5.896,19.645c0.07,0.061,0.17,0.077,0.256,0.044c0.088-0.033,0.148-0.112,0.162-0.204
				c1.234-9.418,11.77-18.975,20.602-19.775c0.125-0.011,0.223-0.111,0.23-0.235s-0.074-0.237-0.197-0.265
				c-4.28-0.969-8.692-0.49-12.389,1.031c2.66-2.934,5.939-5.111,9.555-6.246c0.117-0.036,0.189-0.15,0.176-0.271
				s-0.113-0.215-0.234-0.224c-4.51-0.312-8.924,1.006-12.73,3.538c4.361-6.621,10.98-11.545,19.428-13.506
				c0.121-0.028,0.203-0.139,0.197-0.263c-0.008-0.124-0.104-0.224-0.227-0.237c-11.918-1.302-21.747,3.318-28.221,11.918
				c1.648-4.9,6.365-9.756,12.945-12.619c5.846-2.545,11.85-2.946,16.422-1.51c0.105,0.033,0.223-0.007,0.285-0.1
				C263.822-112.883,263.818-113.006,263.748-113.094z M210.843-37.521c4.807-10.486,4.465-18.686,0.594-29.055
				c-0.045-0.117-0.166-0.185-0.289-0.16c-0.123,0.025-0.209,0.137-0.203,0.262c0.621,12.621-2.826,21.654-10.299,27.807
				c8.25-9.852,4.354-29.56-8.822-29.56c-9.586,0-17.516,7.976-19.455,17.524c-0.024,0.121,0.042,0.244,0.158,0.287
				c0.115,0.045,0.246,0,0.309-0.105c2.843-4.762,7.409-7.852,12.457-7.852c8.135,0,10.541,6.467,10.541,10.998
				c0,6.188-4.926,11.344-8.707,11.344c-3.438,0-5.041-2.824-5.041-4.928c0-3.898,2.998-7.166,6.377-8.164
				c0.119-0.035,0.197-0.154,0.18-0.279c-0.02-0.125-0.125-0.217-0.25-0.219c-4.106-0.025-7.577,1.855-9.63,5.568
				c-0.27-2.875-0.272-4.686,0.641-7.723c0.035-0.117-0.019-0.242-0.126-0.299c-0.109-0.057-0.242-0.027-0.316,0.068
				c-7.356,9.393-3.836,25.625,1.979,32.357c-5.531-3.982-10.416-12.633-10.339-24.393c0.001-0.123-0.085-0.227-0.205-0.25
				c-0.12-0.025-0.239,0.041-0.284,0.154c-4.108,10.252-1.929,29.248,9.281,39.852c-2.884,0.396-5.867,0.346-9.125-0.693
				c-0.115-0.035-0.24,0.014-0.299,0.119c-0.059,0.107-0.035,0.24,0.059,0.318C174.119-1.086,179.841,0,185.292,0
				c-4.697-5.5-3.137-16.555,4.355-16.555c5.348,0,7.775,8.299,3.646,12.781c-0.078,0.086-0.088,0.215-0.025,0.311
				c0.064,0.098,0.186,0.141,0.297,0.102c4.779-1.654,9.945-5.789,9.945-11.016c0-5.043-4.813-9.395-11.801-9.051
				c8.818-2.506,18.051,0.268,22.881,6.252c0.074,0.094,0.205,0.121,0.311,0.068c0.107-0.055,0.162-0.176,0.133-0.291
				c-2.791-10.717-11.967-15.199-23.439-13.707c9.281-3.756,23.25-0.48,29.424,7.311c0.072,0.092,0.199,0.121,0.307,0.072
				c0.105-0.051,0.164-0.168,0.141-0.281C220.095-30.619,216.603-35.566,210.843-37.521z"/>
			<path opacity="0.4" fill="#9DDCF9" d="M237.226-56.809c-0.021,0.119-0.125,0.207-0.246,0.207
				c-12.906,0.137-24.754,3.268-33.971,11.516c8.029-5.559,22.941-7.51,31.527-3.619c0.109,0.051,0.168,0.172,0.141,0.289
				c-0.025,0.117-0.133,0.199-0.254,0.197c-10.68-0.291-19.279,3.006-25.984,8.963c6.869,0.424,12.574,4.74,12.557,9.846
				c0,0.119-0.084,0.223-0.201,0.248c-0.115,0.023-0.234-0.035-0.283-0.145c-1.121-2.488-4.748-3.781-8.582-2.881
				c-4.18,0.982-7,4.189-6.301,7.166c0.471,2.014,2.436,3.402,4.951,3.787c0.127,0.02,0.221,0.129,0.217,0.258
				c-0.004,0.127-0.102,0.232-0.23,0.246c-1.068,0.102-2.18,0.105-3.316-0.004c-6.49-0.617-11.514-4.594-11.949-9.178
				c-4.713,0.547-8.885,3.158-10.379,6.773c-0.045,0.109-0.158,0.172-0.275,0.154c-0.115-0.018-0.203-0.113-0.213-0.23
				c-0.377-4.75,1.258-7.838,4.971-10.854c-5.385,2.059-11.445,2.164-17.256-0.537c-0.105-0.051-0.164-0.166-0.143-0.281
				c0.023-0.115,0.123-0.199,0.24-0.203c4.879-0.189,8.416-1.756,11.732-5.072c-18.256,5.135-33.088-6.201-27.955-23.051
				c0.035-0.117,0.146-0.191,0.268-0.18s0.217,0.107,0.227,0.229c0.918,9.715,7.703,16.117,17.861,17.076
				c-5.387-2.059-11-6.975-11.557-15.533c-0.008-0.123,0.072-0.232,0.191-0.264c0.119-0.029,0.242,0.031,0.293,0.143
				c2.799,6.154,8.297,9.264,14.16,9.813c-6.334-2.582-10.396-8.604-11.57-16.422c-0.02-0.123,0.055-0.24,0.174-0.279
				c0.117-0.037,0.246,0.016,0.303,0.127c3.865,7.582,12.156,12.793,22.447,8.811c10.617-4.109,15.273-16.385,16.303-25.039
				c0.016-0.123,0.115-0.217,0.238-0.225c0.123-0.006,0.232,0.076,0.262,0.195c3.719,15.689-3.584,31.949-16.637,38.84
				c7.096-2.002,13.439-6.26,17.027-13.354c8.293-1.018,14.004-3.863,16.857-9.24c0.057-0.105,0.18-0.158,0.295-0.125
				c0.115,0.035,0.191,0.146,0.182,0.266c-0.182,2.109-0.941,6.33-4.074,8.271c6.965-0.012,12.506,0.893,17.799,3.014
				C237.183-57.045,237.25-56.928,237.226-56.809z M207.74-110.277c0.1,0.064,0.229,0.055,0.316-0.027
				c0.086-0.08,0.104-0.209,0.045-0.313c-1.619-2.797-0.141-6.813,3.051-6.813c5.721,0,8.471,10.77,7.596,20.592
				c-2.162-5.754-4.033-8.055-7.348-10.795c-0.094-0.076-0.229-0.078-0.322,0c-0.094,0.076-0.121,0.209-0.063,0.316
				c4.855,9.078,5.896,16.064,5.896,24.084c-1.463-5.957-3.195-9.32-8.127-14.381c-0.086-0.088-0.223-0.102-0.324-0.031
				s-0.139,0.203-0.088,0.314c5.299,11.592,4.895,24.447,0.947,34.264c-0.039,0.098-0.014,0.209,0.063,0.281
				c0.078,0.072,0.189,0.088,0.285,0.043c5.205-2.551,8.264-4.227,12.752-10.391c-1.357-7.398-0.229-11.047,3.172-17.193
				c-3.938,9.916-1.842,23.893,8.188,29.59c0.109,0.063,0.248,0.035,0.324-0.064c0.078-0.1,0.072-0.24-0.016-0.332
				c-3.781-3.955-6.531-10.635-4.156-17.926c-1.529,10.389,7.596,19.113,17.779,19.113c9.6,0,16.151-7.508,15.61-14.939
				c-0.537-7.365-5.443-10.971-9.672-12.498c-0.111-0.041-0.236,0.002-0.299,0.102c-0.064,0.1-0.051,0.23,0.033,0.314
				c5.61,5.693,6.377,16.492-3.584,19.76c5.859-5.057,3.689-16.828-5.689-17.725c-0.117-0.01-0.227,0.061-0.264,0.172
				c-0.039,0.109,0.004,0.232,0.104,0.295c2.008,1.279,3.678,3.771,3.678,6.574c0,4.674-3.422,6.512-5.676,6.512
				c-3.422,0-6.26-3.256-6.26-8.182c0-5.842,5.26-10.684,12.02-11.434c6.627-0.736,12.784,2.154,15.75,6.459
				c0.07,0.102,0.201,0.137,0.314,0.086c0.111-0.051,0.17-0.174,0.141-0.293c-3.02-11.703-16.797-16.877-26.889-9.508
				c6.613-7.5,17.006-7.605,25.723,0.086c0.09,0.08,0.225,0.086,0.322,0.012c0.096-0.074,0.127-0.205,0.072-0.314
				c-2.666-5.406-9.252-11.818-18.606-10.885c-8.557,0.855-13.521,9.016-14.523,15.691c-0.557-8.521,1.395-14.535,8.754-20.145
				c0.098-0.074,0.127-0.207,0.072-0.316s-0.18-0.164-0.297-0.129c-6.785,1.959-12.23,5.424-15.049,12.543
				c0-6.16,2.139-12.371,7.525-16.51c0.098-0.074,0.127-0.207,0.072-0.316c-0.055-0.107-0.178-0.162-0.295-0.129
				c-3.453,0.982-6.172,2.488-8.139,5.184c-1.311-11.1-6.521-17.689-12.525-17.689c-4.125,0-7.205,3.033-7.205,7.869
				C202.929-116.469,204.417-112.496,207.74-110.277z M108.513-18.66c3.162,3.904,9.539,5.393,16.432,3.988
				c-0.51,4.303,0.334,8.791,1.611,11.486c0.053,0.107,0.174,0.166,0.291,0.137s0.197-0.137,0.193-0.258
				c-0.375-8.766,4.623-15.842,13.449-18.908c-6.906,4.756-8.926,14.193-5.639,19.064c0.068,0.1,0.195,0.139,0.307,0.094
				s0.176-0.162,0.154-0.281c-0.373-2.061,0.605-4.684,2.713-6.725c2.906-2.814,6.85-3.453,8.811-1.43
				c1.961,2.025,1.197,5.947-1.707,8.76c-1.061,1.027-2.26,1.764-3.449,2.186c-0.113,0.041-0.182,0.154-0.166,0.271
				c0.014,0.119,0.109,0.211,0.229,0.221c6.389,0.555,10.77-3.252,13.516-7.877c2.795-4.705,7.57-8.412,13.211-7.672
				c0.119,0.016,0.232-0.055,0.273-0.168c0.039-0.113-0.006-0.238-0.109-0.301c-2.797-1.684-5.871-2.383-9.863-1.053
				c5.795-4.908,14.047-7.74,21.84-5.227c0.109,0.035,0.229-0.008,0.291-0.104s0.053-0.223-0.025-0.309
				c-5.908-6.564-17.689-6.695-25.109-1.371c3.037-4.316,7.068-7.486,14.293-8.479c0.115-0.016,0.205-0.109,0.219-0.225
				c0.012-0.115-0.055-0.225-0.164-0.266c-8.291-3.076-16.6,0.045-23.445,8.217c2.992-6.379,7.906-11.486,14.768-14.014
				c0.115-0.041,0.184-0.158,0.162-0.279c-0.02-0.121-0.123-0.209-0.244-0.211c-3.943-0.082-7.486,0.857-12.266,3.57
				c3.508-5.691,2.74-15.639-2.369-22.26c-0.07-0.092-0.195-0.123-0.303-0.078c-0.105,0.047-0.168,0.16-0.148,0.275
				c1.18,7.199-1.299,15.328-5.609,19.641c2.152-7.631,0.006-14.576-5.896-19.643c-0.07-0.061-0.17-0.078-0.256-0.045
				c-0.088,0.033-0.148,0.111-0.162,0.203c-1.234,9.418-11.77,18.975-20.602,19.775c-0.125,0.012-0.223,0.111-0.23,0.236
				s0.074,0.236,0.197,0.264c4.279,0.969,8.691,0.49,12.389-1.029c-2.66,2.932-5.939,5.109-9.555,6.244
				c-0.117,0.037-0.189,0.15-0.176,0.271s0.113,0.217,0.234,0.225c4.51,0.311,8.924-1.006,12.73-3.539
				c-4.361,6.621-10.98,11.545-19.428,13.508c-0.121,0.027-0.203,0.139-0.197,0.262c0.008,0.123,0.104,0.223,0.227,0.236
				c11.918,1.303,21.746-3.318,28.221-11.918c-1.648,4.902-6.365,9.756-12.945,12.619c-5.846,2.545-11.85,2.947-16.422,1.51
				c-0.105-0.033-0.223,0.008-0.285,0.1C108.439-18.869,108.443-18.746,108.513-18.66z M161.417-94.232
				c-4.807,10.486-4.465,18.686-0.594,29.055c0.045,0.117,0.166,0.186,0.289,0.16s0.209-0.137,0.203-0.26
				c-0.621-12.623,2.826-21.654,10.299-27.809c-8.25,9.854-4.354,29.561,8.822,29.561c9.586,0,17.516-7.977,19.455-17.525
				c0.025-0.121-0.041-0.242-0.158-0.287c-0.115-0.045-0.246,0-0.309,0.107c-2.842,4.762-7.408,7.852-12.457,7.852
				c-8.135,0-10.541-6.467-10.541-11c0-6.186,4.926-11.342,8.707-11.342c3.438,0,5.041,2.822,5.041,4.926
				c0,3.898-2.998,7.166-6.375,8.164c-0.121,0.037-0.197,0.154-0.18,0.279s0.123,0.219,0.25,0.219
				c4.105,0.025,7.576-1.854,9.629-5.568c0.27,2.875,0.271,4.686-0.641,7.725c-0.035,0.117,0.018,0.242,0.125,0.299
				c0.109,0.055,0.242,0.027,0.316-0.07c7.357-9.393,3.836-25.623-1.979-32.357c5.531,3.982,10.416,12.635,10.34,24.395
				c-0.002,0.121,0.084,0.227,0.205,0.25c0.119,0.023,0.238-0.041,0.283-0.154c4.109-10.254,1.93-29.248-9.281-39.852
				c2.885-0.398,5.867-0.348,9.125,0.691c0.115,0.037,0.24-0.014,0.299-0.119s0.035-0.238-0.059-0.316
				c-4.092-3.455-9.814-4.541-15.266-4.541c4.697,5.5,3.137,16.553-4.354,16.553c-5.35,0-7.777-8.299-3.648-12.781
				c0.078-0.086,0.088-0.213,0.025-0.311c-0.064-0.098-0.186-0.139-0.297-0.102c-4.779,1.656-9.945,5.789-9.945,11.018
				c0,5.041,4.813,9.395,11.803,9.051c-8.82,2.504-18.053-0.268-22.883-6.254c-0.074-0.092-0.205-0.121-0.311-0.066
				c-0.107,0.053-0.162,0.174-0.133,0.291c2.791,10.715,11.967,15.199,23.439,13.705c-9.281,3.758-23.25,0.482-29.424-7.309
				c-0.072-0.092-0.199-0.123-0.307-0.072c-0.105,0.049-0.164,0.166-0.141,0.281C152.166-101.133,155.658-96.188,161.417-94.232z"/>
		</g>
		<g>
			<path fill="#00427E" d="M26.696-74.945c0.021-0.119,0.125-0.205,0.246-0.207c12.906-0.135,24.754-3.268,33.972-11.515
				c-8.03,5.558-22.942,7.511-31.527,3.618c-0.11-0.05-0.169-0.17-0.142-0.288c0.026-0.118,0.133-0.2,0.254-0.196
				c10.68,0.289,19.279-3.007,25.984-8.965c-6.869-0.422-12.574-4.74-12.557-9.845c0-0.119,0.084-0.222,0.201-0.247
				c0.116-0.025,0.234,0.035,0.283,0.144c1.121,2.489,4.748,3.78,8.583,2.88c4.18-0.98,7-4.189,6.301-7.165
				c-0.472-2.015-2.437-3.403-4.952-3.787c-0.127-0.019-0.22-0.13-0.217-0.258c0.004-0.128,0.103-0.233,0.23-0.245
				c1.068-0.103,2.18-0.106,3.317,0.002c6.49,0.617,11.514,4.596,11.949,9.178c4.712-0.547,8.884-3.156,10.378-6.773
				c0.045-0.108,0.16-0.172,0.275-0.154c0.115,0.02,0.203,0.114,0.213,0.23c0.377,4.752-1.258,7.839-4.97,10.854
				c5.384-2.06,11.444-2.165,17.255,0.538c0.105,0.049,0.164,0.164,0.143,0.279c-0.023,0.115-0.123,0.199-0.24,0.203
				c-4.879,0.19-8.416,1.756-11.73,5.072c18.254-5.134,33.086,6.201,27.953,23.053c-0.035,0.115-0.146,0.19-0.268,0.178
				c-0.121-0.012-0.217-0.107-0.227-0.229c-0.918-9.714-7.703-16.115-17.861-17.076c5.387,2.061,11,6.977,11.557,15.534
				c0.008,0.122-0.072,0.233-0.191,0.263s-0.242-0.029-0.293-0.141c-2.799-6.154-8.297-9.266-14.16-9.813
				c6.334,2.58,10.396,8.602,11.57,16.42c0.02,0.123-0.055,0.242-0.174,0.279c-0.117,0.039-0.246-0.016-0.303-0.125
				c-3.865-7.583-12.156-12.794-22.446-8.813C64.486-67.951,59.829-55.674,58.8-47.02c-0.015,0.121-0.115,0.215-0.238,0.223
				c-0.122,0.008-0.232-0.074-0.261-0.195c-3.72-15.688,3.583-31.949,16.637-38.84c-7.096,2.003-13.439,6.26-17.027,13.354
				c-8.294,1.019-14.004,3.862-16.857,9.239c-0.057,0.107-0.181,0.16-0.296,0.125c-0.115-0.033-0.191-0.145-0.182-0.266
				c0.183-2.109,0.941-6.33,4.074-8.271c-6.965,0.011-12.506-0.894-17.799-3.013C26.739-74.708,26.674-74.826,26.696-74.945z
				 M56.183-21.475c-0.099-0.066-0.229-0.055-0.315,0.025c-0.086,0.082-0.104,0.211-0.046,0.313c1.62,2.797,0.141,6.814-3.051,6.814
				c-5.721,0-8.471-10.77-7.596-20.594c2.163,5.756,4.033,8.055,7.348,10.795c0.094,0.078,0.229,0.078,0.322,0.002
				c0.094-0.078,0.121-0.209,0.063-0.316c-4.856-9.08-5.897-16.066-5.897-24.086c1.463,5.959,3.195,9.322,8.127,14.381
				c0.086,0.088,0.223,0.102,0.325,0.033c0.102-0.07,0.139-0.203,0.087-0.316c-5.298-11.59-4.894-24.447-0.947-34.264
				c0.039-0.098,0.015-0.209-0.063-0.281c-0.077-0.07-0.189-0.088-0.285-0.041c-5.205,2.551-8.264,4.227-12.752,10.389
				c1.357,7.398,0.229,11.049-3.172,17.195c3.938-9.918,1.842-23.895-8.188-29.592c-0.109-0.062-0.248-0.034-0.324,0.064
				c-0.078,0.1-0.071,0.241,0.016,0.332c3.781,3.955,6.531,10.635,4.156,17.928c1.529-10.389-7.596-19.115-17.779-19.115
				c-9.6,0-16.15,7.51-15.609,14.941c0.537,7.365,5.443,10.969,9.672,12.498c0.111,0.039,0.236-0.002,0.3-0.102
				c0.063-0.102,0.05-0.23-0.033-0.316c-5.61-5.691-6.378-16.492,3.583-19.76c-5.859,5.057-3.689,16.83,5.689,17.725
				c0.117,0.012,0.227-0.059,0.265-0.17s-0.005-0.234-0.104-0.297c-2.009-1.277-3.679-3.771-3.679-6.574
				c0-4.674,3.422-6.51,5.676-6.51c3.422,0,6.26,3.256,6.26,8.18c0,5.844-5.26,10.684-12.02,11.436
				c-6.626,0.734-12.782-2.154-15.75-6.459c-0.069-0.102-0.201-0.139-0.313-0.088s-0.171,0.176-0.141,0.295
				c3.019,11.703,16.796,16.877,26.888,9.506C20.282-30.002,9.89-29.898,1.174-37.59c-0.091-0.08-0.226-0.084-0.322-0.01
				c-0.097,0.072-0.127,0.205-0.073,0.313c2.667,5.408,9.253,11.82,18.605,10.885c8.557-0.855,13.521-9.014,14.523-15.691
				c0.557,8.521-1.394,14.537-8.754,20.146c-0.097,0.074-0.127,0.207-0.072,0.316c0.055,0.107,0.18,0.162,0.297,0.129
				c6.785-1.961,12.23-5.426,15.049-12.545c0,6.162-2.139,12.373-7.525,16.512c-0.098,0.074-0.127,0.205-0.072,0.314
				s0.179,0.164,0.296,0.131c3.453-0.984,6.171-2.488,8.138-5.186c1.311,11.1,6.521,17.691,12.525,17.691
				c4.125,0,7.205-3.033,7.205-7.871C60.993-15.285,59.505-19.258,56.183-21.475z M155.409-113.094
				c-3.162-3.904-9.539-5.393-16.432-3.988c0.51-4.301-0.334-8.791-1.611-11.484c-0.053-0.109-0.174-0.167-0.291-0.139
				c-0.117,0.029-0.197,0.137-0.193,0.258c0.375,8.767-4.623,15.844-13.449,18.91c6.906-4.756,8.926-14.193,5.639-19.066
				c-0.068-0.099-0.195-0.138-0.307-0.092c-0.111,0.045-0.176,0.162-0.154,0.279c0.373,2.061-0.605,4.685-2.713,6.727
				c-2.906,2.814-6.85,3.453-8.811,1.43c-1.961-2.025-1.197-5.947,1.707-8.762c1.061-1.027,2.26-1.762,3.449-2.185
				c0.113-0.04,0.182-0.153,0.166-0.271c-0.014-0.119-0.109-0.211-0.229-0.221c-6.389-0.555-10.77,3.252-13.516,7.878
				c-2.795,4.705-7.57,8.41-13.211,7.67c-0.119-0.016-0.232,0.055-0.273,0.168c-0.039,0.113,0.006,0.24,0.109,0.302
				c2.797,1.685,5.871,2.384,9.863,1.052c-5.795,4.909-14.047,7.742-21.84,5.228c-0.109-0.036-0.229,0.007-0.291,0.104
				s-0.051,0.223,0.025,0.308c5.908,6.564,17.689,6.695,25.109,1.373c-3.037,4.316-7.068,7.484-14.293,8.479
				c-0.115,0.016-0.205,0.107-0.219,0.223C93.634-98.8,93.7-98.69,93.81-98.65c8.291,3.078,16.6-0.045,23.445-8.215
				c-2.992,6.377-7.906,11.484-14.768,14.012c-0.115,0.042-0.184,0.16-0.162,0.279c0.02,0.121,0.123,0.21,0.244,0.213
				c3.943,0.081,7.486-0.857,12.266-3.57c-3.508,5.689-2.74,15.639,2.369,22.258c0.07,0.092,0.195,0.124,0.303,0.078
				c0.105-0.047,0.168-0.159,0.148-0.273c-1.18-7.201,1.299-15.33,5.609-19.643c-2.152,7.632-0.006,14.576,5.896,19.645
				c0.07,0.061,0.17,0.077,0.256,0.044c0.088-0.033,0.148-0.112,0.162-0.204c1.234-9.418,11.77-18.975,20.602-19.775
				c0.125-0.011,0.223-0.111,0.23-0.235s-0.074-0.237-0.197-0.265c-4.279-0.969-8.691-0.49-12.389,1.031
				c2.66-2.934,5.939-5.111,9.555-6.246c0.117-0.036,0.189-0.15,0.176-0.271s-0.113-0.215-0.234-0.224
				c-4.51-0.312-8.924,1.006-12.73,3.538c4.361-6.621,10.98-11.545,19.428-13.506c0.121-0.028,0.203-0.139,0.197-0.263
				c-0.008-0.124-0.104-0.224-0.227-0.237c-11.918-1.302-21.746,3.318-28.221,11.918c1.648-4.9,6.365-9.756,12.945-12.619
				c5.846-2.545,11.85-2.946,16.422-1.51c0.105,0.033,0.223-0.007,0.285-0.1C155.483-112.883,155.479-113.006,155.409-113.094z
				 M102.505-37.521c4.807-10.486,4.465-18.686,0.594-29.055c-0.045-0.117-0.166-0.185-0.289-0.16
				c-0.123,0.025-0.209,0.137-0.203,0.262c0.621,12.621-2.826,21.654-10.299,27.807c8.25-9.852,4.354-29.56-8.822-29.56
				c-9.586,0-17.516,7.976-19.455,17.524c-0.024,0.121,0.042,0.244,0.158,0.287c0.115,0.045,0.246,0,0.309-0.105
				c2.843-4.762,7.409-7.852,12.457-7.852c8.135,0,10.541,6.467,10.541,10.998c0,6.188-4.926,11.344-8.707,11.344
				c-3.438,0-5.041-2.824-5.041-4.928c0-3.898,2.998-7.166,6.377-8.164c0.119-0.035,0.197-0.154,0.18-0.279
				c-0.02-0.125-0.125-0.217-0.25-0.219c-4.106-0.025-7.577,1.855-9.63,5.568c-0.27-2.875-0.272-4.686,0.641-7.723
				c0.035-0.117-0.019-0.242-0.126-0.299c-0.109-0.057-0.242-0.027-0.316,0.068c-7.356,9.393-3.836,25.625,1.979,32.357
				c-5.531-3.982-10.416-12.633-10.339-24.393c0.001-0.123-0.085-0.227-0.205-0.25c-0.12-0.025-0.239,0.041-0.284,0.154
				c-4.108,10.252-1.929,29.248,9.281,39.852c-2.884,0.396-5.867,0.346-9.125-0.693c-0.115-0.035-0.24,0.014-0.299,0.119
				c-0.059,0.107-0.035,0.24,0.059,0.318C65.78-1.086,71.503,0,76.954,0c-4.697-5.5-3.137-16.555,4.355-16.555
				c5.348,0,7.775,8.299,3.646,12.781c-0.078,0.086-0.088,0.215-0.025,0.311c0.064,0.098,0.186,0.141,0.297,0.102
				c4.779-1.654,9.945-5.789,9.945-11.016c0-5.043-4.813-9.395-11.801-9.051c8.818-2.506,18.051,0.268,22.881,6.252
				c0.074,0.094,0.205,0.121,0.311,0.068c0.107-0.055,0.162-0.176,0.133-0.291c-2.791-10.717-11.967-15.199-23.439-13.707
				c9.281-3.756,23.25-0.48,29.424,7.311c0.072,0.092,0.199,0.121,0.307,0.072c0.105-0.051,0.164-0.168,0.141-0.281
				C111.757-30.619,108.265-35.566,102.505-37.521z"/>
			<path opacity="0.4" fill="#9DDCF9" d="M128.888-56.809c-0.021,0.119-0.125,0.207-0.246,0.207
				c-12.906,0.137-24.754,3.268-33.971,11.516c8.029-5.559,22.941-7.51,31.527-3.619c0.109,0.051,0.168,0.172,0.141,0.289
				c-0.025,0.117-0.133,0.199-0.254,0.197c-10.68-0.291-19.279,3.006-25.984,8.963c6.869,0.424,12.574,4.74,12.557,9.846
				c0,0.119-0.084,0.223-0.201,0.248c-0.115,0.023-0.234-0.035-0.283-0.145c-1.121-2.488-4.748-3.781-8.582-2.881
				c-4.18,0.982-7,4.189-6.301,7.166c0.471,2.014,2.436,3.402,4.951,3.787c0.127,0.02,0.221,0.129,0.217,0.258
				c-0.004,0.127-0.102,0.232-0.23,0.246c-1.068,0.102-2.18,0.105-3.316-0.004c-6.49-0.617-11.514-4.594-11.949-9.178
				c-4.713,0.547-8.885,3.158-10.379,6.773c-0.045,0.109-0.158,0.172-0.275,0.154c-0.115-0.018-0.203-0.113-0.213-0.23
				c-0.377-4.75,1.258-7.838,4.971-10.854c-5.385,2.059-11.445,2.164-17.256-0.537c-0.105-0.051-0.164-0.166-0.143-0.281
				c0.023-0.115,0.123-0.199,0.24-0.203c4.879-0.189,8.416-1.756,11.732-5.072c-18.256,5.135-33.088-6.201-27.955-23.051
				c0.035-0.117,0.146-0.191,0.268-0.18s0.217,0.107,0.227,0.229c0.918,9.715,7.703,16.117,17.861,17.076
				c-5.387-2.059-11-6.975-11.557-15.533c-0.008-0.123,0.072-0.232,0.191-0.264c0.119-0.029,0.242,0.031,0.293,0.143
				c2.799,6.154,8.297,9.264,14.16,9.813c-6.334-2.582-10.396-8.604-11.57-16.422c-0.02-0.123,0.055-0.24,0.174-0.279
				c0.117-0.037,0.246,0.016,0.303,0.127c3.865,7.582,12.156,12.793,22.447,8.811c10.617-4.109,15.273-16.385,16.303-25.039
				c0.016-0.123,0.115-0.217,0.238-0.225c0.123-0.006,0.232,0.076,0.262,0.195c3.719,15.689-3.584,31.949-16.637,38.84
				c7.096-2.002,13.439-6.26,17.027-13.354c8.293-1.018,14.004-3.863,16.857-9.24c0.057-0.105,0.18-0.158,0.295-0.125
				c0.115,0.035,0.191,0.146,0.182,0.266c-0.182,2.109-0.941,6.33-4.074,8.271c6.965-0.012,12.506,0.893,17.799,3.014
				C128.845-57.045,128.911-56.928,128.888-56.809z M99.401-110.277c0.1,0.064,0.229,0.055,0.316-0.027
				c0.086-0.08,0.104-0.209,0.045-0.313c-1.619-2.797-0.141-6.813,3.051-6.813c5.721,0,8.471,10.77,7.596,20.592
				c-2.162-5.754-4.033-8.055-7.348-10.795c-0.094-0.076-0.229-0.078-0.322,0c-0.094,0.076-0.121,0.209-0.063,0.316
				c4.855,9.078,5.896,16.064,5.896,24.084c-1.463-5.957-3.195-9.32-8.127-14.381c-0.086-0.088-0.223-0.102-0.324-0.031
				s-0.139,0.203-0.088,0.314c5.299,11.592,4.895,24.447,0.947,34.264c-0.039,0.098-0.014,0.209,0.063,0.281
				c0.078,0.072,0.189,0.088,0.285,0.043c5.205-2.551,8.264-4.227,12.752-10.391c-1.357-7.398-0.229-11.047,3.172-17.193
				c-3.938,9.916-1.842,23.893,8.188,29.59c0.109,0.063,0.248,0.035,0.324-0.064c0.078-0.1,0.072-0.24-0.016-0.332
				c-3.781-3.955-6.531-10.635-4.156-17.926c-1.529,10.389,7.596,19.113,17.779,19.113c9.6,0,16.15-7.508,15.609-14.939
				c-0.537-7.365-5.443-10.971-9.672-12.498c-0.111-0.041-0.236,0.002-0.299,0.102c-0.064,0.1-0.051,0.23,0.033,0.314
				c5.609,5.693,6.377,16.492-3.584,19.76c5.859-5.057,3.689-16.828-5.689-17.725c-0.117-0.01-0.227,0.061-0.264,0.172
				c-0.039,0.109,0.004,0.232,0.104,0.295c2.008,1.279,3.678,3.771,3.678,6.574c0,4.674-3.422,6.512-5.676,6.512
				c-3.422,0-6.26-3.256-6.26-8.182c0-5.842,5.26-10.684,12.02-11.434c6.627-0.736,12.783,2.154,15.75,6.459
				c0.07,0.102,0.201,0.137,0.314,0.086c0.111-0.051,0.17-0.174,0.141-0.293c-3.02-11.703-16.797-16.877-26.889-9.508
				c6.613-7.5,17.006-7.605,25.723,0.086c0.09,0.08,0.225,0.086,0.322,0.012c0.096-0.074,0.127-0.205,0.072-0.314
				c-2.666-5.406-9.252-11.818-18.605-10.885c-8.557,0.855-13.521,9.016-14.523,15.691c-0.557-8.521,1.395-14.535,8.754-20.145
				c0.098-0.074,0.127-0.207,0.072-0.316s-0.18-0.164-0.297-0.129c-6.785,1.959-12.23,5.424-15.049,12.543
				c0-6.16,2.139-12.371,7.525-16.51c0.098-0.074,0.127-0.207,0.072-0.316c-0.055-0.107-0.178-0.162-0.295-0.129
				c-3.453,0.982-6.172,2.488-8.139,5.184c-1.311-11.1-6.521-17.689-12.525-17.689c-4.125,0-7.205,3.033-7.205,7.869
				C94.591-116.469,96.079-112.496,99.401-110.277z M0.175-18.66c3.162,3.904,9.539,5.393,16.432,3.988
				c-0.51,4.303,0.334,8.791,1.611,11.486c0.053,0.107,0.174,0.166,0.291,0.137s0.197-0.137,0.193-0.258
				c-0.375-8.766,4.623-15.842,13.449-18.908c-6.906,4.756-8.926,14.193-5.639,19.064c0.068,0.1,0.195,0.139,0.307,0.094
				s0.176-0.162,0.154-0.281c-0.373-2.061,0.605-4.684,2.713-6.725c2.906-2.814,6.85-3.453,8.811-1.43
				c1.961,2.025,1.197,5.947-1.707,8.76c-1.061,1.027-2.26,1.764-3.449,2.186c-0.113,0.041-0.182,0.154-0.166,0.271
				c0.014,0.119,0.109,0.211,0.229,0.221c6.389,0.555,10.77-3.252,13.516-7.877c2.795-4.705,7.57-8.412,13.211-7.672
				c0.119,0.016,0.232-0.055,0.273-0.168c0.039-0.113-0.006-0.238-0.109-0.301c-2.797-1.684-5.871-2.383-9.863-1.053
				c5.795-4.908,14.047-7.74,21.84-5.227c0.109,0.035,0.229-0.008,0.291-0.104s0.053-0.223-0.025-0.309
				c-5.908-6.564-17.689-6.695-25.109-1.371c3.037-4.316,7.068-7.486,14.293-8.479c0.115-0.016,0.205-0.109,0.219-0.225
				c0.012-0.115-0.055-0.225-0.164-0.266c-8.291-3.076-16.6,0.045-23.445,8.217c2.992-6.379,7.906-11.486,14.768-14.014
				c0.115-0.041,0.184-0.158,0.162-0.279c-0.02-0.121-0.123-0.209-0.244-0.211c-3.943-0.082-7.486,0.857-12.266,3.57
				c3.508-5.691,2.74-15.639-2.369-22.26c-0.07-0.092-0.195-0.123-0.303-0.078c-0.105,0.047-0.168,0.16-0.148,0.275
				c1.18,7.199-1.299,15.328-5.609,19.641c2.152-7.631,0.006-14.576-5.896-19.643c-0.07-0.061-0.17-0.078-0.256-0.045
				c-0.088,0.033-0.148,0.111-0.162,0.203c-1.234,9.418-11.77,18.975-20.602,19.775c-0.125,0.012-0.223,0.111-0.23,0.236
				s0.074,0.236,0.197,0.264c4.279,0.969,8.691,0.49,12.389-1.029c-2.66,2.932-5.939,5.109-9.555,6.244
				c-0.117,0.037-0.189,0.15-0.176,0.271s0.113,0.217,0.234,0.225c4.51,0.311,8.924-1.006,12.73-3.539
				c-4.361,6.621-10.98,11.545-19.428,13.508c-0.121,0.027-0.203,0.139-0.197,0.262c0.008,0.123,0.104,0.223,0.227,0.236
				c11.918,1.303,21.746-3.318,28.221-11.918c-1.648,4.902-6.365,9.756-12.945,12.619c-5.846,2.545-11.85,2.947-16.422,1.51
				c-0.105-0.033-0.223,0.008-0.285,0.1C0.101-18.869,0.104-18.746,0.175-18.66z M53.079-94.232
				c-4.807,10.486-4.465,18.686-0.594,29.055c0.045,0.117,0.166,0.186,0.289,0.16s0.209-0.137,0.203-0.26
				C52.356-77.9,55.804-86.932,63.276-93.086c-8.25,9.854-4.354,29.561,8.822,29.561c9.586,0,17.516-7.977,19.455-17.525
				c0.025-0.121-0.041-0.242-0.158-0.287c-0.115-0.045-0.246,0-0.309,0.107c-2.842,4.762-7.408,7.852-12.457,7.852
				c-8.135,0-10.541-6.467-10.541-11c0-6.186,4.926-11.342,8.707-11.342c3.438,0,5.041,2.822,5.041,4.926
				c0,3.898-2.998,7.166-6.375,8.164c-0.121,0.037-0.197,0.154-0.18,0.279s0.123,0.219,0.25,0.219
				c4.105,0.025,7.576-1.854,9.629-5.568c0.27,2.875,0.271,4.686-0.641,7.725c-0.035,0.117,0.018,0.242,0.125,0.299
				c0.109,0.055,0.242,0.027,0.316-0.07c7.357-9.393,3.836-25.623-1.979-32.357c5.531,3.982,10.416,12.635,10.34,24.395
				c-0.002,0.121,0.084,0.227,0.205,0.25c0.119,0.023,0.238-0.041,0.283-0.154c4.109-10.254,1.93-29.248-9.281-39.852
				c2.885-0.398,5.867-0.348,9.125,0.691c0.115,0.037,0.24-0.014,0.299-0.119s0.035-0.238-0.059-0.316
				c-4.092-3.455-9.814-4.541-15.266-4.541c4.697,5.5,3.137,16.553-4.354,16.553c-5.35,0-7.777-8.299-3.648-12.781
				c0.078-0.086,0.088-0.213,0.025-0.311c-0.064-0.098-0.186-0.139-0.297-0.102c-4.779,1.656-9.945,5.789-9.945,11.018
				c0,5.041,4.813,9.395,11.803,9.051c-8.82,2.504-18.053-0.268-22.883-6.254c-0.074-0.092-0.205-0.121-0.311-0.066
				c-0.107,0.053-0.162,0.174-0.133,0.291c2.791,10.715,11.967,15.199,23.439,13.705c-9.281,3.758-23.25,0.482-29.424-7.309
				c-0.072-0.092-0.199-0.123-0.307-0.072c-0.105,0.049-0.164,0.166-0.141,0.281C43.827-101.133,47.319-96.188,53.079-94.232z"/>
		</g>
		<g>
			<path fill="#00427E" d="M135.035-184.587c0.021-0.119,0.125-0.205,0.246-0.207c12.906-0.135,24.754-3.268,33.972-11.515
				c-8.03,5.558-22.942,7.511-31.527,3.618c-0.11-0.05-0.169-0.17-0.142-0.288c0.026-0.118,0.133-0.2,0.254-0.196
				c10.68,0.289,19.279-3.007,25.984-8.965c-6.869-0.422-12.574-4.74-12.557-9.845c0-0.119,0.084-0.222,0.201-0.247
				c0.116-0.025,0.234,0.035,0.283,0.144c1.121,2.489,4.748,3.78,8.583,2.88c4.18-0.98,7-4.189,6.301-7.165
				c-0.472-2.015-2.437-3.403-4.952-3.787c-0.127-0.019-0.22-0.13-0.217-0.258c0.004-0.128,0.103-0.233,0.23-0.245
				c1.068-0.103,2.18-0.106,3.317,0.002c6.49,0.617,11.514,4.596,11.949,9.178c4.712-0.547,8.884-3.156,10.378-6.773
				c0.045-0.108,0.16-0.172,0.275-0.154c0.115,0.02,0.203,0.114,0.213,0.23c0.377,4.752-1.258,7.839-4.97,10.854
				c5.384-2.06,11.444-2.165,17.255,0.538c0.105,0.049,0.164,0.164,0.143,0.279c-0.023,0.115-0.123,0.199-0.24,0.203
				c-4.879,0.19-8.416,1.756-11.73,5.072c18.254-5.134,33.086,6.201,27.953,23.053c-0.035,0.115-0.146,0.19-0.268,0.178
				c-0.121-0.012-0.217-0.107-0.227-0.229c-0.918-9.714-7.703-16.115-17.861-17.076c5.387,2.061,11,6.977,11.557,15.534
				c0.008,0.122-0.072,0.233-0.191,0.263s-0.242-0.029-0.293-0.141c-2.799-6.154-8.297-9.266-14.16-9.813
				c6.334,2.58,10.396,8.602,11.57,16.42c0.02,0.123-0.055,0.242-0.174,0.279c-0.117,0.039-0.246-0.016-0.303-0.125
				c-3.865-7.583-12.156-12.794-22.446-8.813c-10.617,4.109-15.274,16.387-16.304,25.041c-0.015,0.121-0.115,0.215-0.238,0.223
				c-0.122,0.008-0.232-0.074-0.261-0.195c-3.72-15.688,3.583-31.949,16.637-38.84c-7.096,2.003-13.439,6.26-17.027,13.354
				c-8.294,1.019-14.004,3.862-16.857,9.239c-0.057,0.107-0.181,0.16-0.296,0.125c-0.115-0.033-0.191-0.145-0.182-0.266
				c0.183-2.109,0.941-6.33,4.074-8.271c-6.965,0.011-12.506-0.894-17.799-3.013C135.078-184.35,135.012-184.468,135.035-184.587z
				 M164.521-131.116c-0.099-0.066-0.229-0.055-0.315,0.025c-0.086,0.082-0.104,0.211-0.046,0.313
				c1.62,2.797,0.141,6.814-3.051,6.814c-5.721,0-8.471-10.77-7.596-20.594c2.163,5.756,4.033,8.055,7.348,10.795
				c0.094,0.078,0.229,0.078,0.322,0.002c0.094-0.078,0.121-0.209,0.063-0.316c-4.856-9.08-5.897-16.066-5.897-24.086
				c1.463,5.959,3.195,9.322,8.127,14.381c0.086,0.088,0.223,0.102,0.325,0.033c0.102-0.07,0.139-0.203,0.087-0.316
				c-5.298-11.59-4.894-24.447-0.947-34.264c0.039-0.098,0.015-0.209-0.063-0.281c-0.077-0.07-0.189-0.088-0.285-0.041
				c-5.205,2.551-8.264,4.227-12.752,10.389c1.357,7.398,0.229,11.049-3.172,17.195c3.938-9.918,1.842-23.895-8.188-29.592
				c-0.109-0.062-0.248-0.034-0.324,0.064c-0.078,0.1-0.071,0.241,0.016,0.332c3.781,3.955,6.531,10.635,4.156,17.928
				c1.529-10.389-7.596-19.115-17.779-19.115c-9.6,0-16.15,7.51-15.609,14.941c0.537,7.365,5.443,10.969,9.672,12.498
				c0.111,0.039,0.236-0.002,0.3-0.102c0.063-0.102,0.05-0.23-0.033-0.316c-5.61-5.691-6.378-16.492,3.583-19.76
				c-5.859,5.057-3.689,16.83,5.689,17.725c0.117,0.012,0.227-0.059,0.265-0.17s-0.005-0.234-0.104-0.297
				c-2.009-1.277-3.679-3.771-3.679-6.574c0-4.674,3.422-6.51,5.676-6.51c3.422,0,6.26,3.256,6.26,8.18
				c0,5.844-5.26,10.684-12.02,11.436c-6.626,0.734-12.782-2.154-15.75-6.459c-0.069-0.102-0.201-0.139-0.313-0.088
				s-0.171,0.176-0.141,0.295c3.019,11.703,16.796,16.877,26.888,9.506c-6.613,7.502-17.006,7.605-25.722-0.086
				c-0.091-0.08-0.226-0.084-0.322-0.01c-0.097,0.072-0.127,0.205-0.073,0.313c2.667,5.408,9.253,11.82,18.605,10.885
				c8.557-0.855,13.521-9.014,14.523-15.691c0.557,8.521-1.394,14.537-8.754,20.146c-0.097,0.074-0.127,0.207-0.072,0.316
				c0.055,0.107,0.18,0.162,0.297,0.129c6.785-1.961,12.23-5.426,15.049-12.545c0,6.162-2.139,12.373-7.525,16.512
				c-0.098,0.074-0.127,0.205-0.072,0.314s0.179,0.164,0.296,0.131c3.453-0.984,6.171-2.488,8.138-5.186
				c1.311,11.1,6.521,17.691,12.525,17.691c4.125,0,7.205-3.033,7.205-7.871C169.332-124.927,167.843-128.899,164.521-131.116z
				 M263.748-222.735c-3.162-3.904-9.54-5.393-16.432-3.988c0.51-4.301-0.334-8.791-1.611-11.484
				c-0.053-0.109-0.174-0.167-0.291-0.139c-0.117,0.029-0.197,0.137-0.193,0.258c0.375,8.767-4.623,15.844-13.449,18.91
				c6.906-4.756,8.926-14.193,5.639-19.066c-0.068-0.099-0.195-0.138-0.307-0.092c-0.111,0.045-0.176,0.162-0.154,0.279
				c0.373,2.061-0.605,4.685-2.713,6.727c-2.906,2.814-6.85,3.453-8.811,1.43c-1.961-2.025-1.197-5.947,1.707-8.762
				c1.061-1.027,2.26-1.762,3.449-2.185c0.113-0.04,0.182-0.153,0.166-0.271c-0.014-0.119-0.109-0.211-0.229-0.221
				c-6.389-0.555-10.77,3.252-13.516,7.878c-2.795,4.705-7.57,8.41-13.211,7.67c-0.119-0.016-0.232,0.055-0.273,0.168
				c-0.039,0.113,0.006,0.24,0.109,0.302c2.797,1.685,5.871,2.384,9.863,1.052c-5.795,4.909-14.047,7.742-21.84,5.228
				c-0.109-0.036-0.229,0.007-0.291,0.104s-0.051,0.223,0.025,0.308c5.908,6.564,17.689,6.695,25.109,1.373
				c-3.037,4.316-7.068,7.484-14.293,8.479c-0.115,0.016-0.205,0.107-0.219,0.223c-0.012,0.116,0.055,0.226,0.164,0.266
				c8.291,3.078,16.6-0.045,23.445-8.215c-2.992,6.377-7.906,11.484-14.768,14.012c-0.115,0.042-0.184,0.16-0.162,0.279
				c0.02,0.121,0.123,0.21,0.244,0.213c3.943,0.081,7.486-0.857,12.266-3.57c-3.508,5.689-2.74,15.639,2.369,22.258
				c0.07,0.092,0.195,0.124,0.303,0.078c0.105-0.047,0.168-0.159,0.148-0.273c-1.18-7.201,1.299-15.33,5.609-19.643
				c-2.152,7.632-0.006,14.576,5.896,19.645c0.07,0.061,0.17,0.077,0.256,0.044c0.088-0.033,0.148-0.112,0.162-0.204
				c1.234-9.418,11.77-18.975,20.602-19.775c0.125-0.011,0.223-0.111,0.23-0.235s-0.074-0.237-0.197-0.265
				c-4.28-0.969-8.692-0.49-12.389,1.031c2.66-2.934,5.939-5.111,9.555-6.246c0.117-0.036,0.189-0.15,0.176-0.271
				s-0.113-0.215-0.234-0.224c-4.51-0.312-8.924,1.006-12.73,3.538c4.361-6.621,10.98-11.545,19.428-13.506
				c0.121-0.028,0.203-0.139,0.197-0.263c-0.008-0.124-0.104-0.224-0.227-0.237c-11.918-1.302-21.747,3.318-28.221,11.918
				c1.648-4.9,6.365-9.756,12.945-12.619c5.846-2.545,11.85-2.946,16.422-1.51c0.105,0.033,0.223-0.007,0.285-0.1
				C263.822-222.524,263.818-222.647,263.748-222.735z M210.843-147.163c4.807-10.486,4.465-18.686,0.594-29.055
				c-0.045-0.117-0.166-0.185-0.289-0.16c-0.123,0.025-0.209,0.137-0.203,0.262c0.621,12.621-2.826,21.654-10.299,27.807
				c8.25-9.852,4.354-29.56-8.822-29.56c-9.586,0-17.516,7.976-19.455,17.524c-0.024,0.121,0.042,0.244,0.158,0.287
				c0.115,0.045,0.246,0,0.309-0.105c2.843-4.762,7.409-7.852,12.457-7.852c8.135,0,10.541,6.467,10.541,10.998
				c0,6.188-4.926,11.344-8.707,11.344c-3.438,0-5.041-2.824-5.041-4.928c0-3.898,2.998-7.166,6.377-8.164
				c0.119-0.035,0.197-0.154,0.18-0.279c-0.02-0.125-0.125-0.217-0.25-0.219c-4.106-0.025-7.577,1.855-9.63,5.568
				c-0.27-2.875-0.272-4.686,0.641-7.723c0.035-0.117-0.019-0.242-0.126-0.299c-0.109-0.057-0.242-0.027-0.316,0.068
				c-7.356,9.393-3.836,25.625,1.979,32.357c-5.531-3.982-10.416-12.633-10.339-24.393c0.001-0.123-0.085-0.227-0.205-0.25
				c-0.12-0.025-0.239,0.041-0.284,0.154c-4.108,10.252-1.929,29.248,9.281,39.852c-2.884,0.396-5.867,0.346-9.125-0.693
				c-0.115-0.035-0.24,0.014-0.299,0.119c-0.059,0.107-0.035,0.24,0.059,0.318c4.092,3.455,9.814,4.541,15.266,4.541
				c-4.697-5.5-3.137-16.555,4.355-16.555c5.348,0,7.775,8.299,3.646,12.781c-0.078,0.086-0.088,0.215-0.025,0.311
				c0.064,0.098,0.186,0.141,0.297,0.102c4.779-1.654,9.945-5.789,9.945-11.016c0-5.043-4.813-9.395-11.801-9.051
				c8.818-2.506,18.051,0.268,22.881,6.252c0.074,0.094,0.205,0.121,0.311,0.068c0.107-0.055,0.162-0.176,0.133-0.291
				c-2.791-10.717-11.967-15.199-23.439-13.707c9.281-3.756,23.25-0.48,29.424,7.311c0.072,0.092,0.199,0.121,0.307,0.072
				c0.105-0.051,0.164-0.168,0.141-0.281C220.095-140.261,216.603-145.208,210.843-147.163z"/>
			<path opacity="0.4" fill="#9DDCF9" d="M237.226-166.45c-0.021,0.119-0.125,0.207-0.246,0.207
				c-12.906,0.137-24.754,3.268-33.971,11.516c8.029-5.559,22.941-7.51,31.527-3.619c0.109,0.051,0.168,0.172,0.141,0.289
				c-0.025,0.117-0.133,0.199-0.254,0.197c-10.68-0.291-19.279,3.006-25.984,8.963c6.869,0.424,12.574,4.74,12.557,9.846
				c0,0.119-0.084,0.223-0.201,0.248c-0.115,0.023-0.234-0.035-0.283-0.145c-1.121-2.488-4.748-3.781-8.582-2.881
				c-4.18,0.982-7,4.189-6.301,7.166c0.471,2.014,2.436,3.402,4.951,3.787c0.127,0.02,0.221,0.129,0.217,0.258
				c-0.004,0.127-0.102,0.232-0.23,0.246c-1.068,0.102-2.18,0.105-3.316-0.004c-6.49-0.617-11.514-4.594-11.949-9.178
				c-4.713,0.547-8.885,3.158-10.379,6.773c-0.045,0.109-0.158,0.172-0.275,0.154c-0.115-0.018-0.203-0.113-0.213-0.23
				c-0.377-4.75,1.258-7.838,4.971-10.854c-5.385,2.059-11.445,2.164-17.256-0.537c-0.105-0.051-0.164-0.166-0.143-0.281
				c0.023-0.115,0.123-0.199,0.24-0.203c4.879-0.189,8.416-1.756,11.732-5.072c-18.256,5.135-33.088-6.201-27.955-23.051
				c0.035-0.117,0.146-0.191,0.268-0.18s0.217,0.107,0.227,0.229c0.918,9.715,7.703,16.117,17.861,17.076
				c-5.387-2.059-11-6.975-11.557-15.533c-0.008-0.123,0.072-0.232,0.191-0.264c0.119-0.029,0.242,0.031,0.293,0.143
				c2.799,6.154,8.297,9.264,14.16,9.813c-6.334-2.582-10.396-8.604-11.57-16.422c-0.02-0.123,0.055-0.24,0.174-0.279
				c0.117-0.037,0.246,0.016,0.303,0.127c3.865,7.582,12.156,12.793,22.447,8.811c10.617-4.109,15.273-16.385,16.303-25.039
				c0.016-0.123,0.115-0.217,0.238-0.225c0.123-0.006,0.232,0.076,0.262,0.195c3.719,15.689-3.584,31.949-16.637,38.84
				c7.096-2.002,13.439-6.26,17.027-13.354c8.293-1.018,14.004-3.863,16.857-9.24c0.057-0.105,0.18-0.158,0.295-0.125
				c0.115,0.035,0.191,0.146,0.182,0.266c-0.182,2.109-0.941,6.33-4.074,8.271c6.965-0.012,12.506,0.893,17.799,3.014
				C237.183-166.687,237.25-166.569,237.226-166.45z M207.74-219.919c0.1,0.064,0.229,0.055,0.316-0.027
				c0.086-0.08,0.104-0.209,0.045-0.313c-1.619-2.797-0.141-6.813,3.051-6.813c5.721,0,8.471,10.77,7.596,20.592
				c-2.162-5.754-4.033-8.055-7.348-10.795c-0.094-0.076-0.229-0.078-0.322,0c-0.094,0.076-0.121,0.209-0.063,0.316
				c4.855,9.078,5.896,16.064,5.896,24.084c-1.463-5.957-3.195-9.32-8.127-14.381c-0.086-0.088-0.223-0.102-0.324-0.031
				s-0.139,0.203-0.088,0.314c5.299,11.592,4.895,24.447,0.947,34.264c-0.039,0.098-0.014,0.209,0.063,0.281
				c0.078,0.072,0.189,0.088,0.285,0.043c5.205-2.551,8.264-4.227,12.752-10.391c-1.357-7.398-0.229-11.047,3.172-17.193
				c-3.938,9.916-1.842,23.893,8.188,29.59c0.109,0.063,0.248,0.035,0.324-0.064c0.078-0.1,0.072-0.24-0.016-0.332
				c-3.781-3.955-6.531-10.635-4.156-17.926c-1.529,10.389,7.596,19.113,17.779,19.113c9.6,0,16.151-7.508,15.61-14.939
				c-0.537-7.365-5.443-10.971-9.672-12.498c-0.111-0.041-0.236,0.002-0.299,0.102c-0.064,0.1-0.051,0.23,0.033,0.314
				c5.61,5.693,6.377,16.492-3.584,19.76c5.859-5.057,3.689-16.828-5.689-17.725c-0.117-0.01-0.227,0.061-0.264,0.172
				c-0.039,0.109,0.004,0.232,0.104,0.295c2.008,1.279,3.678,3.771,3.678,6.574c0,4.674-3.422,6.512-5.676,6.512
				c-3.422,0-6.26-3.256-6.26-8.182c0-5.842,5.26-10.684,12.02-11.434c6.627-0.736,12.784,2.154,15.75,6.459
				c0.07,0.102,0.201,0.137,0.314,0.086c0.111-0.051,0.17-0.174,0.141-0.293c-3.02-11.703-16.797-16.877-26.889-9.508
				c6.613-7.5,17.006-7.605,25.723,0.086c0.09,0.08,0.225,0.086,0.322,0.012c0.096-0.074,0.127-0.205,0.072-0.314
				c-2.666-5.406-9.252-11.818-18.606-10.885c-8.557,0.855-13.521,9.016-14.523,15.691c-0.557-8.521,1.395-14.535,8.754-20.145
				c0.098-0.074,0.127-0.207,0.072-0.316s-0.18-0.164-0.297-0.129c-6.785,1.959-12.23,5.424-15.049,12.543
				c0-6.16,2.139-12.371,7.525-16.51c0.098-0.074,0.127-0.207,0.072-0.316c-0.055-0.107-0.178-0.162-0.295-0.129
				c-3.453,0.982-6.172,2.488-8.139,5.184c-1.311-11.1-6.521-17.689-12.525-17.689c-4.125,0-7.205,3.033-7.205,7.869
				C202.929-226.11,204.417-222.138,207.74-219.919z M108.513-128.302c3.162,3.904,9.539,5.393,16.432,3.988
				c-0.51,4.303,0.334,8.791,1.611,11.486c0.053,0.107,0.174,0.166,0.291,0.137s0.197-0.137,0.193-0.258
				c-0.375-8.766,4.623-15.842,13.449-18.908c-6.906,4.756-8.926,14.193-5.639,19.064c0.068,0.1,0.195,0.139,0.307,0.094
				s0.176-0.162,0.154-0.281c-0.373-2.061,0.605-4.684,2.713-6.725c2.906-2.814,6.85-3.453,8.811-1.43
				c1.961,2.025,1.197,5.947-1.707,8.76c-1.061,1.027-2.26,1.764-3.449,2.186c-0.113,0.041-0.182,0.154-0.166,0.271
				c0.014,0.119,0.109,0.211,0.229,0.221c6.389,0.555,10.77-3.252,13.516-7.877c2.795-4.705,7.57-8.412,13.211-7.672
				c0.119,0.016,0.232-0.055,0.273-0.168c0.039-0.113-0.006-0.238-0.109-0.301c-2.797-1.684-5.871-2.383-9.863-1.053
				c5.795-4.908,14.047-7.74,21.84-5.227c0.109,0.035,0.229-0.008,0.291-0.104s0.053-0.223-0.025-0.309
				c-5.908-6.564-17.689-6.695-25.109-1.371c3.037-4.316,7.068-7.486,14.293-8.479c0.115-0.016,0.205-0.109,0.219-0.225
				c0.012-0.115-0.055-0.225-0.164-0.266c-8.291-3.076-16.6,0.045-23.445,8.217c2.992-6.379,7.906-11.486,14.768-14.014
				c0.115-0.041,0.184-0.158,0.162-0.279c-0.02-0.121-0.123-0.209-0.244-0.211c-3.943-0.082-7.486,0.857-12.266,3.57
				c3.508-5.691,2.74-15.639-2.369-22.26c-0.07-0.092-0.195-0.123-0.303-0.078c-0.105,0.047-0.168,0.16-0.148,0.275
				c1.18,7.199-1.299,15.328-5.609,19.641c2.152-7.631,0.006-14.576-5.896-19.643c-0.07-0.061-0.17-0.078-0.256-0.045
				c-0.088,0.033-0.148,0.111-0.162,0.203c-1.234,9.418-11.77,18.975-20.602,19.775c-0.125,0.012-0.223,0.111-0.23,0.236
				s0.074,0.236,0.197,0.264c4.279,0.969,8.691,0.49,12.389-1.029c-2.66,2.932-5.939,5.109-9.555,6.244
				c-0.117,0.037-0.189,0.15-0.176,0.271s0.113,0.217,0.234,0.225c4.51,0.311,8.924-1.006,12.73-3.539
				c-4.361,6.621-10.98,11.545-19.428,13.508c-0.121,0.027-0.203,0.139-0.197,0.262c0.008,0.123,0.104,0.223,0.227,0.236
				c11.918,1.303,21.746-3.318,28.221-11.918c-1.648,4.902-6.365,9.756-12.945,12.619c-5.846,2.545-11.85,2.947-16.422,1.51
				c-0.105-0.033-0.223,0.008-0.285,0.1C108.439-128.511,108.443-128.388,108.513-128.302z M161.417-203.874
				c-4.807,10.486-4.465,18.686-0.594,29.055c0.045,0.117,0.166,0.186,0.289,0.16s0.209-0.137,0.203-0.26
				c-0.621-12.623,2.826-21.654,10.299-27.809c-8.25,9.854-4.354,29.561,8.822,29.561c9.586,0,17.516-7.977,19.455-17.525
				c0.025-0.121-0.041-0.242-0.158-0.287c-0.115-0.045-0.246,0-0.309,0.107c-2.842,4.762-7.408,7.852-12.457,7.852
				c-8.135,0-10.541-6.467-10.541-11c0-6.186,4.926-11.342,8.707-11.342c3.438,0,5.041,2.822,5.041,4.926
				c0,3.898-2.998,7.166-6.375,8.164c-0.121,0.037-0.197,0.154-0.18,0.279s0.123,0.219,0.25,0.219
				c4.105,0.025,7.576-1.854,9.629-5.568c0.27,2.875,0.271,4.686-0.641,7.725c-0.035,0.117,0.018,0.242,0.125,0.299
				c0.109,0.055,0.242,0.027,0.316-0.07c7.357-9.393,3.836-25.623-1.979-32.357c5.531,3.982,10.416,12.635,10.34,24.395
				c-0.002,0.121,0.084,0.227,0.205,0.25c0.119,0.023,0.238-0.041,0.283-0.154c4.109-10.254,1.93-29.248-9.281-39.852
				c2.885-0.398,5.867-0.348,9.125,0.691c0.115,0.037,0.24-0.014,0.299-0.119s0.035-0.238-0.059-0.316
				c-4.092-3.455-9.814-4.541-15.266-4.541c4.697,5.5,3.137,16.553-4.354,16.553c-5.35,0-7.777-8.299-3.648-12.781
				c0.078-0.086,0.088-0.213,0.025-0.311c-0.064-0.098-0.186-0.139-0.297-0.102c-4.779,1.656-9.945,5.789-9.945,11.018
				c0,5.041,4.813,9.395,11.803,9.051c-8.82,2.504-18.053-0.268-22.883-6.254c-0.074-0.092-0.205-0.121-0.311-0.066
				c-0.107,0.053-0.162,0.174-0.133,0.291c2.791,10.715,11.967,15.199,23.439,13.705c-9.281,3.758-23.25,0.482-29.424-7.309
				c-0.072-0.092-0.199-0.123-0.307-0.072c-0.105,0.049-0.164,0.166-0.141,0.281C152.166-210.774,155.658-205.829,161.417-203.874z"
				/>
		</g>
		<g>
			<path fill="#00427E" d="M26.696-184.587c0.021-0.119,0.125-0.205,0.246-0.207c12.906-0.135,24.754-3.268,33.972-11.515
				c-8.03,5.558-22.942,7.511-31.527,3.618c-0.11-0.05-0.169-0.17-0.142-0.288c0.026-0.118,0.133-0.2,0.254-0.196
				c10.68,0.289,19.279-3.007,25.984-8.965c-6.869-0.422-12.574-4.74-12.557-9.845c0-0.119,0.084-0.222,0.201-0.247
				c0.116-0.025,0.234,0.035,0.283,0.144c1.121,2.489,4.748,3.78,8.583,2.88c4.18-0.98,7-4.189,6.301-7.165
				c-0.472-2.015-2.437-3.403-4.952-3.787c-0.127-0.019-0.22-0.13-0.217-0.258c0.004-0.128,0.103-0.233,0.23-0.245
				c1.068-0.103,2.18-0.106,3.317,0.002c6.49,0.617,11.514,4.596,11.949,9.178c4.712-0.547,8.884-3.156,10.378-6.773
				c0.045-0.108,0.16-0.172,0.275-0.154c0.115,0.02,0.203,0.114,0.213,0.23c0.377,4.752-1.258,7.839-4.97,10.854
				c5.384-2.06,11.444-2.165,17.255,0.538c0.105,0.049,0.164,0.164,0.143,0.279c-0.023,0.115-0.123,0.199-0.24,0.203
				c-4.879,0.19-8.416,1.756-11.73,5.072c18.254-5.134,33.086,6.201,27.953,23.053c-0.035,0.115-0.146,0.19-0.268,0.178
				c-0.121-0.012-0.217-0.107-0.227-0.229c-0.918-9.714-7.703-16.115-17.861-17.076c5.387,2.061,11,6.977,11.557,15.534
				c0.008,0.122-0.072,0.233-0.191,0.263s-0.242-0.029-0.293-0.141c-2.799-6.154-8.297-9.266-14.16-9.813
				c6.334,2.58,10.396,8.602,11.57,16.42c0.02,0.123-0.055,0.242-0.174,0.279c-0.117,0.039-0.246-0.016-0.303-0.125
				c-3.865-7.583-12.156-12.794-22.446-8.813c-10.617,4.109-15.274,16.387-16.304,25.041c-0.015,0.121-0.115,0.215-0.238,0.223
				c-0.122,0.008-0.232-0.074-0.261-0.195c-3.72-15.688,3.583-31.949,16.637-38.84c-7.096,2.003-13.439,6.26-17.027,13.354
				c-8.294,1.019-14.004,3.862-16.857,9.239c-0.057,0.107-0.181,0.16-0.296,0.125c-0.115-0.033-0.191-0.145-0.182-0.266
				c0.183-2.109,0.941-6.33,4.074-8.271c-6.965,0.011-12.506-0.894-17.799-3.013C26.739-184.35,26.674-184.468,26.696-184.587z
				 M56.183-131.116c-0.099-0.066-0.229-0.055-0.315,0.025c-0.086,0.082-0.104,0.211-0.046,0.313
				c1.62,2.797,0.141,6.814-3.051,6.814c-5.721,0-8.471-10.77-7.596-20.594c2.163,5.756,4.033,8.055,7.348,10.795
				c0.094,0.078,0.229,0.078,0.322,0.002c0.094-0.078,0.121-0.209,0.063-0.316c-4.856-9.08-5.897-16.066-5.897-24.086
				c1.463,5.959,3.195,9.322,8.127,14.381c0.086,0.088,0.223,0.102,0.325,0.033c0.102-0.07,0.139-0.203,0.087-0.316
				c-5.298-11.59-4.894-24.447-0.947-34.264c0.039-0.098,0.015-0.209-0.063-0.281c-0.077-0.07-0.189-0.088-0.285-0.041
				c-5.205,2.551-8.264,4.227-12.752,10.389c1.357,7.398,0.229,11.049-3.172,17.195c3.938-9.918,1.842-23.895-8.188-29.592
				c-0.109-0.062-0.248-0.034-0.324,0.064c-0.078,0.1-0.071,0.241,0.016,0.332c3.781,3.955,6.531,10.635,4.156,17.928
				c1.529-10.389-7.596-19.115-17.779-19.115c-9.6,0-16.15,7.51-15.609,14.941c0.537,7.365,5.443,10.969,9.672,12.498
				c0.111,0.039,0.236-0.002,0.3-0.102c0.063-0.102,0.05-0.23-0.033-0.316c-5.61-5.691-6.378-16.492,3.583-19.76
				c-5.859,5.057-3.689,16.83,5.689,17.725c0.117,0.012,0.227-0.059,0.265-0.17s-0.005-0.234-0.104-0.297
				c-2.009-1.277-3.679-3.771-3.679-6.574c0-4.674,3.422-6.51,5.676-6.51c3.422,0,6.26,3.256,6.26,8.18
				c0,5.844-5.26,10.684-12.02,11.436c-6.626,0.734-12.782-2.154-15.75-6.459c-0.069-0.102-0.201-0.139-0.313-0.088
				s-0.171,0.176-0.141,0.295c3.019,11.703,16.796,16.877,26.888,9.506c-6.613,7.502-17.006,7.605-25.722-0.086
				c-0.091-0.08-0.226-0.084-0.322-0.01c-0.097,0.072-0.127,0.205-0.073,0.313c2.667,5.408,9.253,11.82,18.605,10.885
				c8.557-0.855,13.521-9.014,14.523-15.691c0.557,8.521-1.394,14.537-8.754,20.146c-0.097,0.074-0.127,0.207-0.072,0.316
				c0.055,0.107,0.18,0.162,0.297,0.129c6.785-1.961,12.23-5.426,15.049-12.545c0,6.162-2.139,12.373-7.525,16.512
				c-0.098,0.074-0.127,0.205-0.072,0.314s0.179,0.164,0.296,0.131c3.453-0.984,6.171-2.488,8.138-5.186
				c1.311,11.1,6.521,17.691,12.525,17.691c4.125,0,7.205-3.033,7.205-7.871C60.993-124.927,59.505-128.899,56.183-131.116z
				 M155.409-222.735c-3.162-3.904-9.539-5.393-16.432-3.988c0.51-4.301-0.334-8.791-1.611-11.484
				c-0.053-0.109-0.174-0.167-0.291-0.139c-0.117,0.029-0.197,0.137-0.193,0.258c0.375,8.767-4.623,15.844-13.449,18.91
				c6.906-4.756,8.926-14.193,5.639-19.066c-0.068-0.099-0.195-0.138-0.307-0.092c-0.111,0.045-0.176,0.162-0.154,0.279
				c0.373,2.061-0.605,4.685-2.713,6.727c-2.906,2.814-6.85,3.453-8.811,1.43c-1.961-2.025-1.197-5.947,1.707-8.762
				c1.061-1.027,2.26-1.762,3.449-2.185c0.113-0.04,0.182-0.153,0.166-0.271c-0.014-0.119-0.109-0.211-0.229-0.221
				c-6.389-0.555-10.77,3.252-13.516,7.878c-2.795,4.705-7.57,8.41-13.211,7.67c-0.119-0.016-0.232,0.055-0.273,0.168
				c-0.039,0.113,0.006,0.24,0.109,0.302c2.797,1.685,5.871,2.384,9.863,1.052c-5.795,4.909-14.047,7.742-21.84,5.228
				c-0.109-0.036-0.229,0.007-0.291,0.104s-0.051,0.223,0.025,0.308c5.908,6.564,17.689,6.695,25.109,1.373
				c-3.037,4.316-7.068,7.484-14.293,8.479c-0.115,0.016-0.205,0.107-0.219,0.223c-0.012,0.116,0.055,0.226,0.164,0.266
				c8.291,3.078,16.6-0.045,23.445-8.215c-2.992,6.377-7.906,11.484-14.768,14.012c-0.115,0.042-0.184,0.16-0.162,0.279
				c0.02,0.121,0.123,0.21,0.244,0.213c3.943,0.081,7.486-0.857,12.266-3.57c-3.508,5.689-2.74,15.639,2.369,22.258
				c0.07,0.092,0.195,0.124,0.303,0.078c0.105-0.047,0.168-0.159,0.148-0.273c-1.18-7.201,1.299-15.33,5.609-19.643
				c-2.152,7.632-0.006,14.576,5.896,19.645c0.07,0.061,0.17,0.077,0.256,0.044c0.088-0.033,0.148-0.112,0.162-0.204
				c1.234-9.418,11.77-18.975,20.602-19.775c0.125-0.011,0.223-0.111,0.23-0.235s-0.074-0.237-0.197-0.265
				c-4.279-0.969-8.691-0.49-12.389,1.031c2.66-2.934,5.939-5.111,9.555-6.246c0.117-0.036,0.189-0.15,0.176-0.271
				s-0.113-0.215-0.234-0.224c-4.51-0.312-8.924,1.006-12.73,3.538c4.361-6.621,10.98-11.545,19.428-13.506
				c0.121-0.028,0.203-0.139,0.197-0.263c-0.008-0.124-0.104-0.224-0.227-0.237c-11.918-1.302-21.746,3.318-28.221,11.918
				c1.648-4.9,6.365-9.756,12.945-12.619c5.846-2.545,11.85-2.946,16.422-1.51c0.105,0.033,0.223-0.007,0.285-0.1
				C155.483-222.524,155.479-222.647,155.409-222.735z M102.505-147.163c4.807-10.486,4.465-18.686,0.594-29.055
				c-0.045-0.117-0.166-0.185-0.289-0.16c-0.123,0.025-0.209,0.137-0.203,0.262c0.621,12.621-2.826,21.654-10.299,27.807
				c8.25-9.852,4.354-29.56-8.822-29.56c-9.586,0-17.516,7.976-19.455,17.524c-0.024,0.121,0.042,0.244,0.158,0.287
				c0.115,0.045,0.246,0,0.309-0.105c2.843-4.762,7.409-7.852,12.457-7.852c8.135,0,10.541,6.467,10.541,10.998
				c0,6.188-4.926,11.344-8.707,11.344c-3.438,0-5.041-2.824-5.041-4.928c0-3.898,2.998-7.166,6.377-8.164
				c0.119-0.035,0.197-0.154,0.18-0.279c-0.02-0.125-0.125-0.217-0.25-0.219c-4.106-0.025-7.577,1.855-9.63,5.568
				c-0.27-2.875-0.272-4.686,0.641-7.723c0.035-0.117-0.019-0.242-0.126-0.299c-0.109-0.057-0.242-0.027-0.316,0.068
				c-7.356,9.393-3.836,25.625,1.979,32.357c-5.531-3.982-10.416-12.633-10.339-24.393c0.001-0.123-0.085-0.227-0.205-0.25
				c-0.12-0.025-0.239,0.041-0.284,0.154c-4.108,10.252-1.929,29.248,9.281,39.852c-2.884,0.396-5.867,0.346-9.125-0.693
				c-0.115-0.035-0.24,0.014-0.299,0.119c-0.059,0.107-0.035,0.24,0.059,0.318c4.092,3.455,9.814,4.541,15.266,4.541
				c-4.697-5.5-3.137-16.555,4.355-16.555c5.348,0,7.775,8.299,3.646,12.781c-0.078,0.086-0.088,0.215-0.025,0.311
				c0.064,0.098,0.186,0.141,0.297,0.102c4.779-1.654,9.945-5.789,9.945-11.016c0-5.043-4.813-9.395-11.801-9.051
				c8.818-2.506,18.051,0.268,22.881,6.252c0.074,0.094,0.205,0.121,0.311,0.068c0.107-0.055,0.162-0.176,0.133-0.291
				c-2.791-10.717-11.967-15.199-23.439-13.707c9.281-3.756,23.25-0.48,29.424,7.311c0.072,0.092,0.199,0.121,0.307,0.072
				c0.105-0.051,0.164-0.168,0.141-0.281C111.757-140.261,108.265-145.208,102.505-147.163z"/>
			<path opacity="0.4" fill="#9DDCF9" d="M128.888-166.45c-0.021,0.119-0.125,0.207-0.246,0.207
				c-12.906,0.137-24.754,3.268-33.971,11.516c8.029-5.559,22.941-7.51,31.527-3.619c0.109,0.051,0.168,0.172,0.141,0.289
				c-0.025,0.117-0.133,0.199-0.254,0.197c-10.68-0.291-19.279,3.006-25.984,8.963c6.869,0.424,12.574,4.74,12.557,9.846
				c0,0.119-0.084,0.223-0.201,0.248c-0.115,0.023-0.234-0.035-0.283-0.145c-1.121-2.488-4.748-3.781-8.582-2.881
				c-4.18,0.982-7,4.189-6.301,7.166c0.471,2.014,2.436,3.402,4.951,3.787c0.127,0.02,0.221,0.129,0.217,0.258
				c-0.004,0.127-0.102,0.232-0.23,0.246c-1.068,0.102-2.18,0.105-3.316-0.004c-6.49-0.617-11.514-4.594-11.949-9.178
				c-4.713,0.547-8.885,3.158-10.379,6.773c-0.045,0.109-0.158,0.172-0.275,0.154c-0.115-0.018-0.203-0.113-0.213-0.23
				c-0.377-4.75,1.258-7.838,4.971-10.854c-5.385,2.059-11.445,2.164-17.256-0.537c-0.105-0.051-0.164-0.166-0.143-0.281
				c0.023-0.115,0.123-0.199,0.24-0.203c4.879-0.189,8.416-1.756,11.732-5.072c-18.256,5.135-33.088-6.201-27.955-23.051
				c0.035-0.117,0.146-0.191,0.268-0.18s0.217,0.107,0.227,0.229c0.918,9.715,7.703,16.117,17.861,17.076
				c-5.387-2.059-11-6.975-11.557-15.533c-0.008-0.123,0.072-0.232,0.191-0.264c0.119-0.029,0.242,0.031,0.293,0.143
				c2.799,6.154,8.297,9.264,14.16,9.813c-6.334-2.582-10.396-8.604-11.57-16.422c-0.02-0.123,0.055-0.24,0.174-0.279
				c0.117-0.037,0.246,0.016,0.303,0.127c3.865,7.582,12.156,12.793,22.447,8.811c10.617-4.109,15.273-16.385,16.303-25.039
				c0.016-0.123,0.115-0.217,0.238-0.225c0.123-0.006,0.232,0.076,0.262,0.195c3.719,15.689-3.584,31.949-16.637,38.84
				c7.096-2.002,13.439-6.26,17.027-13.354c8.293-1.018,14.004-3.863,16.857-9.24c0.057-0.105,0.18-0.158,0.295-0.125
				c0.115,0.035,0.191,0.146,0.182,0.266c-0.182,2.109-0.941,6.33-4.074,8.271c6.965-0.012,12.506,0.893,17.799,3.014
				C128.845-166.687,128.911-166.569,128.888-166.45z M99.401-219.919c0.1,0.064,0.229,0.055,0.316-0.027
				c0.086-0.08,0.104-0.209,0.045-0.313c-1.619-2.797-0.141-6.813,3.051-6.813c5.721,0,8.471,10.77,7.596,20.592
				c-2.162-5.754-4.033-8.055-7.348-10.795c-0.094-0.076-0.229-0.078-0.322,0c-0.094,0.076-0.121,0.209-0.063,0.316
				c4.855,9.078,5.896,16.064,5.896,24.084c-1.463-5.957-3.195-9.32-8.127-14.381c-0.086-0.088-0.223-0.102-0.324-0.031
				s-0.139,0.203-0.088,0.314c5.299,11.592,4.895,24.447,0.947,34.264c-0.039,0.098-0.014,0.209,0.063,0.281
				c0.078,0.072,0.189,0.088,0.285,0.043c5.205-2.551,8.264-4.227,12.752-10.391c-1.357-7.398-0.229-11.047,3.172-17.193
				c-3.938,9.916-1.842,23.893,8.188,29.59c0.109,0.063,0.248,0.035,0.324-0.064c0.078-0.1,0.072-0.24-0.016-0.332
				c-3.781-3.955-6.531-10.635-4.156-17.926c-1.529,10.389,7.596,19.113,17.779,19.113c9.6,0,16.15-7.508,15.609-14.939
				c-0.537-7.365-5.443-10.971-9.672-12.498c-0.111-0.041-0.236,0.002-0.299,0.102c-0.064,0.1-0.051,0.23,0.033,0.314
				c5.609,5.693,6.377,16.492-3.584,19.76c5.859-5.057,3.689-16.828-5.689-17.725c-0.117-0.01-0.227,0.061-0.264,0.172
				c-0.039,0.109,0.004,0.232,0.104,0.295c2.008,1.279,3.678,3.771,3.678,6.574c0,4.674-3.422,6.512-5.676,6.512
				c-3.422,0-6.26-3.256-6.26-8.182c0-5.842,5.26-10.684,12.02-11.434c6.627-0.736,12.783,2.154,15.75,6.459
				c0.07,0.102,0.201,0.137,0.314,0.086c0.111-0.051,0.17-0.174,0.141-0.293c-3.02-11.703-16.797-16.877-26.889-9.508
				c6.613-7.5,17.006-7.605,25.723,0.086c0.09,0.08,0.225,0.086,0.322,0.012c0.096-0.074,0.127-0.205,0.072-0.314
				c-2.666-5.406-9.252-11.818-18.605-10.885c-8.557,0.855-13.521,9.016-14.523,15.691c-0.557-8.521,1.395-14.535,8.754-20.145
				c0.098-0.074,0.127-0.207,0.072-0.316s-0.18-0.164-0.297-0.129c-6.785,1.959-12.23,5.424-15.049,12.543
				c0-6.16,2.139-12.371,7.525-16.51c0.098-0.074,0.127-0.207,0.072-0.316c-0.055-0.107-0.178-0.162-0.295-0.129
				c-3.453,0.982-6.172,2.488-8.139,5.184c-1.311-11.1-6.521-17.689-12.525-17.689c-4.125,0-7.205,3.033-7.205,7.869
				C94.591-226.11,96.079-222.138,99.401-219.919z M0.175-128.302c3.162,3.904,9.539,5.393,16.432,3.988
				c-0.51,4.303,0.334,8.791,1.611,11.486c0.053,0.107,0.174,0.166,0.291,0.137s0.197-0.137,0.193-0.258
				c-0.375-8.766,4.623-15.842,13.449-18.908c-6.906,4.756-8.926,14.193-5.639,19.064c0.068,0.1,0.195,0.139,0.307,0.094
				s0.176-0.162,0.154-0.281c-0.373-2.061,0.605-4.684,2.713-6.725c2.906-2.814,6.85-3.453,8.811-1.43
				c1.961,2.025,1.197,5.947-1.707,8.76c-1.061,1.027-2.26,1.764-3.449,2.186c-0.113,0.041-0.182,0.154-0.166,0.271
				c0.014,0.119,0.109,0.211,0.229,0.221c6.389,0.555,10.77-3.252,13.516-7.877c2.795-4.705,7.57-8.412,13.211-7.672
				c0.119,0.016,0.232-0.055,0.273-0.168c0.039-0.113-0.006-0.238-0.109-0.301c-2.797-1.684-5.871-2.383-9.863-1.053
				c5.795-4.908,14.047-7.74,21.84-5.227c0.109,0.035,0.229-0.008,0.291-0.104s0.053-0.223-0.025-0.309
				c-5.908-6.564-17.689-6.695-25.109-1.371c3.037-4.316,7.068-7.486,14.293-8.479c0.115-0.016,0.205-0.109,0.219-0.225
				c0.012-0.115-0.055-0.225-0.164-0.266c-8.291-3.076-16.6,0.045-23.445,8.217c2.992-6.379,7.906-11.486,14.768-14.014
				c0.115-0.041,0.184-0.158,0.162-0.279c-0.02-0.121-0.123-0.209-0.244-0.211c-3.943-0.082-7.486,0.857-12.266,3.57
				c3.508-5.691,2.74-15.639-2.369-22.26c-0.07-0.092-0.195-0.123-0.303-0.078c-0.105,0.047-0.168,0.16-0.148,0.275
				c1.18,7.199-1.299,15.328-5.609,19.641c2.152-7.631,0.006-14.576-5.896-19.643c-0.07-0.061-0.17-0.078-0.256-0.045
				c-0.088,0.033-0.148,0.111-0.162,0.203c-1.234,9.418-11.77,18.975-20.602,19.775c-0.125,0.012-0.223,0.111-0.23,0.236
				s0.074,0.236,0.197,0.264c4.279,0.969,8.691,0.49,12.389-1.029c-2.66,2.932-5.939,5.109-9.555,6.244
				c-0.117,0.037-0.189,0.15-0.176,0.271s0.113,0.217,0.234,0.225c4.51,0.311,8.924-1.006,12.73-3.539
				c-4.361,6.621-10.98,11.545-19.428,13.508c-0.121,0.027-0.203,0.139-0.197,0.262c0.008,0.123,0.104,0.223,0.227,0.236
				c11.918,1.303,21.746-3.318,28.221-11.918c-1.648,4.902-6.365,9.756-12.945,12.619c-5.846,2.545-11.85,2.947-16.422,1.51
				c-0.105-0.033-0.223,0.008-0.285,0.1C0.101-128.511,0.104-128.388,0.175-128.302z M53.079-203.874
				c-4.807,10.486-4.465,18.686-0.594,29.055c0.045,0.117,0.166,0.186,0.289,0.16s0.209-0.137,0.203-0.26
				c-0.621-12.623,2.826-21.654,10.299-27.809c-8.25,9.854-4.354,29.561,8.822,29.561c9.586,0,17.516-7.977,19.455-17.525
				c0.025-0.121-0.041-0.242-0.158-0.287c-0.115-0.045-0.246,0-0.309,0.107c-2.842,4.762-7.408,7.852-12.457,7.852
				c-8.135,0-10.541-6.467-10.541-11c0-6.186,4.926-11.342,8.707-11.342c3.438,0,5.041,2.822,5.041,4.926
				c0,3.898-2.998,7.166-6.375,8.164c-0.121,0.037-0.197,0.154-0.18,0.279s0.123,0.219,0.25,0.219
				c4.105,0.025,7.576-1.854,9.629-5.568c0.27,2.875,0.271,4.686-0.641,7.725c-0.035,0.117,0.018,0.242,0.125,0.299
				c0.109,0.055,0.242,0.027,0.316-0.07c7.357-9.393,3.836-25.623-1.979-32.357c5.531,3.982,10.416,12.635,10.34,24.395
				c-0.002,0.121,0.084,0.227,0.205,0.25c0.119,0.023,0.238-0.041,0.283-0.154c4.109-10.254,1.93-29.248-9.281-39.852
				c2.885-0.398,5.867-0.348,9.125,0.691c0.115,0.037,0.24-0.014,0.299-0.119s0.035-0.238-0.059-0.316
				c-4.092-3.455-9.814-4.541-15.266-4.541c4.697,5.5,3.137,16.553-4.354,16.553c-5.35,0-7.777-8.299-3.648-12.781
				c0.078-0.086,0.088-0.213,0.025-0.311c-0.064-0.098-0.186-0.139-0.297-0.102c-4.779,1.656-9.945,5.789-9.945,11.018
				c0,5.041,4.813,9.395,11.803,9.051c-8.82,2.504-18.053-0.268-22.883-6.254c-0.074-0.092-0.205-0.121-0.311-0.066
				c-0.107,0.053-0.162,0.174-0.133,0.291c2.791,10.715,11.967,15.199,23.439,13.705c-9.281,3.758-23.25,0.482-29.424-7.309
				c-0.072-0.092-0.199-0.123-0.307-0.072c-0.105,0.049-0.164,0.166-0.141,0.281C43.827-210.774,47.319-205.829,53.079-203.874z"/>
		</g>
	</g>
</pattern>
<g id="レイヤー_2">
	<linearGradient id="SVGID_1_" gradientUnits="userSpaceOnUse" x1="17" y1="306.5" x2="942" y2="306.5">
		<stop  offset="0.0493" style="stop-color:#219DD7"/>
		<stop  offset="0.1339" style="stop-color:#1E9CD7"/>
		<stop  offset="0.2906" style="stop-color:#2CA2D9"/>
		<stop  offset="0.4975" style="stop-color:#CCE0F4"/>
		<stop  offset="0.5097" style="stop-color:#C3DBF2"/>
		<stop  offset="0.5299" style="stop-color:#A9CEEB"/>
		<stop  offset="0.5558" style="stop-color:#80B8E0"/>
		<stop  offset="0.5862" style="stop-color:#469AD1"/>
		<stop  offset="0.6189" style="stop-color:#0075BE"/>
		<stop  offset="0.803" style="stop-color:#0072B9"/>
		<stop  offset="0.9015" style="stop-color:#0073BB"/>
		<stop  offset="0.9944" style="stop-color:#005B97"/>
	</linearGradient>
	
		<rect x="17" y="192" fill="url(#SVGID_1_)" stroke="url(#ジャイブ)" stroke-width="10" stroke-miterlimit="10" width="925" height="229"/>
</g>
<g id="レイヤー_3">
	<g>
		<g>
			<path fill="#00D4B8" d="M71.198,248.939c-7.058-5.801-16.767-12.009-19.21-21.357c-2.62-10.025,15.038-16.904,19.44-6.998
				c0.624,1.403,2.824,0.654,2.795-0.757c-0.133-6.681,4.212-9.55,10.405-7.563c5.997,1.925,10.145,8.024,9.837,14.22
				c-0.693,13.975-19.661,22.344-30.762,26.38c-1.803,0.655-1.025,3.555,0.798,2.893c13.583-4.938,38.793-17.437,31.926-35.958
				c-4.427-11.942-25.542-16.92-25.205,0.029c0.932-0.252,1.863-0.505,2.795-0.757c-4.79-10.778-19.832-6.593-24.218,2.345
				c-5.825,11.87,11.87,23.559,19.275,29.645C70.559,252.278,72.694,250.168,71.198,248.939L71.198,248.939z"/>
		</g>
	</g>
	<g>
		<g>
			<path fill="#00D4B8" d="M914.966,410.568c-8.655-0.348-18.638-6.953-23.631-13.771c-7.712-10.531,6.658-21.218,15.674-12.979
				c0.976,0.892,2.512,0.271,2.561-1.061c0.471-12.866,21.257-12.063,24.966-1.534c2.436,6.912-3.863,14.658-7.908,19.596
				c-4.768,5.817-10.973,12.159-18.095,14.976c-1.777,0.702-1.004,3.604,0.797,2.893c8.525-3.371,15.861-10.918,21.291-18.087
				c4.949-6.536,9.951-14.682,5.664-22.809c-6.273-11.893-29.182-9.614-29.715,4.966c0.854-0.354,1.707-0.707,2.561-1.061
				c-8.788-8.031-23.421-2.745-22.852,9.836c0.276,6.102,5.435,10.7,9.914,14.139c5.192,3.986,12.101,7.629,18.773,7.896
				C916.901,413.646,916.894,410.646,914.966,410.568L914.966,410.568z"/>
		</g>
	</g>
	<g>
		<g>
			<path fill="#00D4B8" d="M64.965,235.12c1.935,0,1.935-3,0-3S63.031,235.12,64.965,235.12L64.965,235.12z"/>
		</g>
	</g>
	<g>
		<g>
			<path fill="#00D4B8" d="M83.931,235.12c1.935,0,1.935-3,0-3S81.997,235.12,83.931,235.12L83.931,235.12z"/>
		</g>
	</g>
	<g>
		<g>
			<path fill="#00D4B8" d="M905.482,402.361c1.935,0,1.935-3,0-3S903.548,402.361,905.482,402.361L905.482,402.361z"/>
		</g>
	</g>
	<g>
		<g>
			<path fill="#00D4B8" d="M920.138,398.051c1.935,0,1.935-3,0-3S918.203,398.051,920.138,398.051L920.138,398.051z"/>
		</g>
	</g>
</g>
<g id="レイヤー_1" display="none">
	<rect x="111.517" y="114.655" display="inline" fill="none" width="728.449" height="336.207"/>
	
		<text transform="matrix(0.6628 0 0 1 101.0552 307.375)" display="inline" fill="#15EDFF" font-family="'ARBERKLEY'" font-size="115.6868">ARCHITECTURE</text>
	<g display="inline">
		<g>
			<path fill="#00D4B8" d="M76.362,400c0.529-6.858,8.687-12.365,13.755-15.852c8.237-5.667,17.357-10.074,26.48-14.107
				c21.244-9.39,43.611-15.256,66.565-18.694c31.8-4.764,64.149-3.873,96.201-3.646c32.616,0.231,65.245,1.142,97.739,4.097
				c126.731,11.527,249.151,54.723,377.249,54.187c23.302-0.098,46.446-1.707,68.814-8.645c18.284-5.67,35.281-14.784,50.082-26.91
				c31.183-25.545,47.418-63.914,52.251-103.188c0.708-5.751-8.301-5.683-9,0c-5.131,41.693-24.646,80.909-60.176,104.611
				c-42.663,28.462-96.38,26.935-145.479,23.771c-63.852-4.114-126.705-17.252-189.35-29.593
				c-62.655-12.344-125.334-23.448-189.254-26.157c-30.738-1.303-61.517-1.27-92.277-1.27c-29.137,0-58.345,2.545-86.708,9.414
				c-18.045,4.37-35.568,11.104-52.167,19.401C88.428,373.748,68.61,383.841,67.362,400C66.915,405.791,75.918,405.748,76.362,400
				L76.362,400z"/>
		</g>
	</g>
	<g display="inline">
		<g>
			<path fill="#00D4B8" d="M919.705,269.358c-11.054,23.983-33.226,39.453-56.44,50.466c-27.866,13.219-58.384,20.752-88.802,25.15
				c-65.012,9.401-131.742,8.094-196.882,0.743c-42.626-4.81-84.656-13.599-127.501-16.649
				c-41.643-2.965-84.54-1.039-124.316,12.589c-1.819,0.623-1.038,3.521,0.798,2.893c62.674-21.473,130.881-13.845,194.973-3.827
				c64.038,10.009,128.14,15.915,193.017,12.801c43.26-2.076,86.899-7.314,127.879-21.918
				c31.548-11.243,65.194-28.898,79.865-60.732C923.099,269.128,920.514,267.604,919.705,269.358L919.705,269.358z"/>
		</g>
	</g>
	<path display="inline" fill="#00D4B8" d="M605,345.5c-6,0-6,9,0,9C610,354.5,610,345.5,605,345.5z"/>
	<path display="inline" fill="#00D4B8" d="M357,329.982c-6,0-6,9,0,9S363,329.982,357,329.982z"/>
	<path display="inline" fill="#00D4B8" d="M382,326.534c-6,0-6,9,0,9S388,326.534,382,326.534z"/>
	<path display="inline" fill="#00D4B8" d="M412,324.811c-6,0-6,9,0,9C417,333.811,417,324.811,412,324.811z"/>
	<path display="inline" fill="#00D4B8" d="M440,325.673c-6,0-6,9,0,9S446,325.673,440,325.673z"/>
	<path display="inline" fill="#00D4B8" d="M468,328.259c-6,0-6,9,0,9C473,337.259,473,328.259,468,328.259z"/>
	<path display="inline" fill="#00D4B8" d="M493,331.707c-6,0-6,9,0,9C498,340.707,498,331.707,493,331.707z"/>
	<path display="inline" fill="#00D4B8" d="M517,335.155c-6,0-6,9,0,9C522,344.155,522,335.155,517,335.155z"/>
	<path display="inline" fill="#00D4B8" d="M537,338.604c-6,0-6,9,0,9C542,347.604,542,338.604,537,338.604z"/>
	<path display="inline" fill="#00D4B8" d="M566,342.914c-6,0-6,9,0,9S572,342.914,566,342.914z"/>
	<path display="inline" fill="#00D4B8" d="M634,347.225c-6,0-6,9,0,9S640,347.225,634,347.225z"/>
	<path display="inline" fill="#00D4B8" d="M664,348.086c-6,0-6,9,0,9S670,348.086,664,348.086z"/>
	<path display="inline" fill="#00D4B8" d="M693,347.225c-6,0-6,9,0,9C698,356.225,698,347.225,693,347.225z"/>
	<path display="inline" fill="#00D4B8" d="M730,346.362c-6,0-6,9,0,9C735,355.362,735,346.362,730,346.362z"/>
	<path display="inline" fill="#00D4B8" d="M755,343.775c-5,0-5,9,0,9C761,352.775,761,343.775,755,343.775z"/>
	<path display="inline" fill="#00D4B8" d="M785,341.189c-6,0-6,9,0,9S791,341.189,785,341.189z"/>
	<path display="inline" fill="#00D4B8" d="M817,333.431c-6,0-6,9,0,9C822,342.431,822,333.431,817,333.431z"/>
	<path display="inline" fill="#00D4B8" d="M850,322.225c-5,0-5,9,0,9C856,331.225,856,322.225,850,322.225z"/>
	<path display="inline" fill="#00D4B8" d="M880,307.569c-5,0-5,9,0,9C886,316.569,886,307.569,880,307.569z"/>
	<path display="inline" fill="#00D4B8" d="M901,292.914c-6,0-6,9,0,9S907,292.914,901,292.914z"/>
</g>
<g id="レイヤー_1のコピー">
	<rect x="111.517" y="114.655" fill="none" width="728.449" height="336.207"/>
	<g>
		<path fill="#15EDFF" d="M96.071,334.677l-1.38-0.926l-0.383-1.388c1.943-5.709,5.24-12.881,9.892-21.518
			c3.527-6.555,7.079-13.148,10.658-19.783c-0.614,0-1.215,0.02-1.802,0.059c-0.588,0.039-1.163,0.057-1.725,0.057
			c-0.87,0-1.662-0.075-2.377-0.23c-0.716-0.154-1.407-0.463-2.07-0.926l-0.92-2.082c1.022-3.008,2.262-5.07,3.719-6.189
			c1.457-1.117,3.207-1.678,5.252-1.678c0.715,0,1.457,0.058,2.224,0.174c0.767,0.116,1.534,0.213,2.3,0.289
			c0.869-1.464,4.114-7.075,9.738-16.833c5.623-9.755,9.993-17.217,13.112-22.385c4.651-7.711,7.386-11.838,8.205-12.378
			l1.457,1.735c0.102,0.925,0.23,1.813,0.383,2.661c0,4.089-0.256,9.023-0.767,14.808c-1.177,13.344-1.764,21.789-1.764,25.335
			l0.153,8.33c0.562,0,1.188,0.136,1.878,0.405c0.69,0.271,1.162,0.676,1.418,1.215c-0.153,0.693-0.563,1.504-1.227,2.43
			c-0.87,1.002-1.432,1.658-1.687,1.966c0,2.776,0.293,5.824,0.882,9.14c0.587,3.316,1.162,6.518,1.725,9.602l-0.537,1.735
			l-1.534,1.157c-1.79-0.387-2.965-0.656-3.527-0.811c-0.563-0.154-1.457-0.617-2.684-1.388c-0.87-2.468-1.598-5.282-2.185-8.445
			c-0.588-3.161-1.087-6.554-1.496-10.181c-2.147,0-4.627,0.232-7.438,0.694c-6.544,1.081-10.685,1.62-12.422,1.62
			c-2.147,4.627-4.269,9.255-6.364,13.883c-3.886,8.404-7.131,14.846-9.738,19.318C101.208,330.781,98.218,334.289,96.071,334.677z
			 M138.781,282.039h1.994l-0.077-6.247c0-8.792,0.844-17.854,2.531-27.187l-17.33,32.393c1.789,0,3.399,0.078,4.831,0.231
			C135.739,281.77,138.423,282.039,138.781,282.039z"/>
		<path fill="#15EDFF" d="M164.698,318.48l0.153,2.198l-1.15,2.776c-1.432,0.616-2.275,1.002-2.53,1.156
			c-1.227,0.617-2.07,0.964-2.53,1.041l-1.457-1.388c-0.103-0.462-0.205-0.983-0.307-1.562c-0.103-0.578-0.153-0.908-0.153-0.983
			c0-1.466,2.019-7.791,6.058-18.973c2.454-6.786,6.619-17.989,12.499-33.607c5.878-15.618,9.227-24.583,10.045-26.897
			c-6.288,0-10.543,0.405-12.767,1.215c-2.224,0.81-5.994,3.337-11.31,7.578l-1.15-0.926c-0.051-0.231-0.103-0.5-0.153-0.81
			c-0.205-0.848-0.307-1.388-0.307-1.62c0-1.388,0.932-4.261,2.799-8.619c1.865-4.356,3.259-6.959,4.179-7.809
			c0.204,0.078,0.625,0.271,1.266,0.579c0.638,0.309,1.06,0.463,1.265,0.463c2.351,0,7.872-0.81,16.563-2.43
			c4.141-0.77,7.488-1.157,10.045-1.157c7.258,0,12.652,1.099,16.179,3.297c3.527,2.198,5.291,5.458,5.291,9.776
			c0,0.85-0.153,1.659-0.46,2.429c-0.563,1.157-1.125,2.276-1.687,3.355c-2.097,5.708-5.036,10.258-8.818,13.651
			c-1.432,1.313-4.576,3.355-9.432,6.131c-3.323,1.929-5.496,4.049-6.518,6.363c0,4.243,1.814,9.527,5.444,15.849
			c3.629,6.325,6.875,9.486,9.738,9.486c1.584,0,2.964-0.5,4.141-1.504c1.84-1.927,3.681-3.855,5.521-5.784l1.227,2.313
			c-0.512,3.317-2.812,6.787-6.901,10.412c-3.885,3.393-7.029,5.09-9.431,5.09c-4.908,0-9.1-3.025-12.575-9.081
			c-3.477-6.054-5.214-12.859-5.214-20.419c0-6.632,2.224-11.876,6.671-15.733c1.687-1.464,5.828-3.855,12.422-7.172
			c4.498-2.236,6.748-4.666,6.748-7.289c0-2.467-1.202-4.396-3.604-5.784c-2.403-1.388-5.802-2.083-10.198-2.083h-2.377
			c-5.471,13.42-8.793,21.596-9.968,24.526c-3.784,9.564-6.953,18.087-9.508,25.566C169.272,301.437,166.691,310.227,164.698,318.48
			z"/>
		<path fill="#15EDFF" d="M272.276,293.607c0,3.549-3.834,7.135-11.501,10.76c-6.646,3.161-11.655,4.742-15.029,4.742
			c-6.544,0-12.345-2.968-17.406-8.907c-5.521-6.479-8.281-14.499-8.281-24.063c0-3.315,0.332-6.016,0.997-8.098
			c1.074-2.621,2.019-4.935,2.837-6.941c4.141-10.18,9.265-17.931,15.374-23.253c6.108-5.322,13.175-7.982,21.201-7.982
			c0.664,0,1.329,0,1.994,0c0.664,0,1.354-0.038,2.07-0.116c2.556,0,4.396,0.425,5.521,1.272c1.687,1.313,2.53,3.626,2.53,6.941
			c0,2.006-0.218,3.433-0.651,4.28c-0.435,0.85-1.317,1.62-2.646,2.314c-3.374-1.311-5.854-2.236-7.438-2.776
			c-2.812-1.001-5.394-1.504-7.745-1.504c-6.594,0-12.218,2.122-16.869,6.363c-5.521,5.014-8.281,12.263-8.281,21.749
			c0,7.481,2.364,14.596,7.093,21.344c4.728,6.75,9.572,10.123,14.531,10.123c1.073,0,2.121-0.232,3.144-0.695l17.33-7.172
			L272.276,293.607z"/>
		<path fill="#15EDFF" d="M306.551,302.284c-0.307,1.003-1.994,2.603-5.061,4.802c-3.067,2.197-5.061,3.373-5.981,3.527l-0.92-0.693
			l-0.383-1.273c0.715-4.549,1.967-10.064,3.757-16.543c1.482-5.321,2.964-10.681,4.448-16.08l-4.831-0.116l-5.137,0.116l0.92,2.313
			c-0.307,1.081-0.997,2.218-2.07,3.413c-1.073,1.196-1.994,1.793-2.76,1.793c-0.818,0-2.646-0.886-5.482-2.661
			c-2.837-1.773-4.716-2.814-5.636-3.124l-0.613-1.967c0.92-4.472,3.399-7.596,7.438-9.371c2.811-1.233,6.798-1.851,11.962-1.851
			c1.227,0,2.862,0.04,4.907,0.116c2.044,0.078,3.424,0.116,4.141,0.116c3.271-12.57,5.214-19.627,5.828-21.171
			c2.76-7.017,6.671-11.297,11.732-12.841l0.92,0.694l0.383,1.62c-0.051,0.309-0.665,2.083-1.84,5.322
			c-1.176,3.239-1.917,5.361-2.224,6.363l-5.904,21.055c2.862,0.618,5.546,0.926,8.051,0.926c2.658,0,5.341-0.231,8.051-0.694
			c2.709-0.463,4.831-1.272,6.364-2.429c1.124-2.314,2.658-9.024,4.601-20.13c1.329-7.789,4.421-12.763,9.278-14.923l1.15,0.925
			l0.537,1.967c-0.665,3.857-1.994,10.258-3.987,19.204c-1.994,8.948-3.374,15.657-4.141,20.129
			c-1.278,7.56-1.917,14.153-1.917,19.782c0,0.387,0.127,1.081,0.383,2.082c0.102,0.078,0.23,0.193,0.383,0.348
			c0.153,0.155,0.357,0.309,0.614,0.463c0.92,0,1.865-0.617,2.837-1.852c1.431-1.926,2.862-3.855,4.294-5.783l1.15,0.925
			l0.153,1.157c-0.358,1.851-0.844,3.953-1.457,6.305c-0.613,2.354-1.253,4.378-1.917,6.073c-1.79,1.62-3.579,3.239-5.368,4.858
			c-2.607,2.236-4.345,3.355-5.214,3.355c-2.147,0-3.694-1.003-4.639-3.008c-0.946-2.004-1.418-4.743-1.418-8.214
			c0-1.001,0.537-5.128,1.61-12.378c0.255-1.62,0.945-6.016,2.07-13.188c-5.317,2.082-9.393,3.452-12.23,4.106
			c-2.837,0.656-5.457,0.983-7.859,0.983c-1.33,0-2.684-0.116-4.064-0.347c-0.358,1.466-1.125,4.204-2.3,8.213
			c-1.84,6.326-2.76,11.262-2.76,14.809c0,0.463,0,0.926,0,1.389C306.499,301.514,306.551,301.977,306.551,302.284z"/>
		<path fill="#15EDFF" d="M374.871,280.419l-0.537,1.272c-0.41,0.31-1.164,0.503-2.262,0.579c-1.1,0.077-1.854,0.193-2.262,0.347
			l-1.38-1.619c-0.051-0.231-0.103-0.501-0.153-0.81c-0.205-0.848-0.307-1.388-0.307-1.62c0-4.703,2.224-11.144,6.671-19.319
			c4.243-7.867,9.073-14.808,14.492-20.824c5.776-6.479,10.325-9.718,13.649-9.718c4.498,0,8.191,2.064,11.08,6.189
			c2.887,4.127,4.332,9.544,4.332,16.254c0,16.12-1.994,28.614-5.981,37.482c-3.732,8.33-9.406,14.191-17.022,17.585
			c-6.391,2.853-15.132,4.28-26.224,4.28h-1.61c-3.784,0-6.774-0.193-8.972-0.578c-3.834-0.694-6.031-1.967-6.594-3.818
			c0.512-1.001,2.926-3.546,7.246-7.635c4.319-4.088,6.836-6.131,7.553-6.131l0.69,0.693l0.077,1.619
			c0.767,1.082,2.785,1.93,6.058,2.545c3.271,0.619,7.54,0.926,12.805,0.926c9.251,0,15.322-2.332,18.211-6.998
			c2.888-4.666,4.333-14.326,4.333-28.98c0-5.785-0.614-10.528-1.84-14.229c-1.637-4.935-4.167-7.404-7.591-7.404
			c-4.601,0-9.828,4.879-15.681,14.635C377.796,264.899,374.871,273.325,374.871,280.419z"/>
		<path fill="#15EDFF" d="M466.885,306.334c0,0.23,0.063,0.617,0.191,1.156c0.127,0.539,0.269,1.041,0.422,1.504
			c0.409,0.231,0.831,0.463,1.265,0.694c0.434,0.231,0.805,0.423,1.112,0.578c4.344,0,9.738-3.124,16.18-9.37
			c4.141-4.01,7.131-6.633,8.971-7.867l0.997,0.578l0.46,1.504c-0.717,3.78-3.578,7.867-8.588,12.264
			c-4.09,3.623-9.1,7.057-15.029,10.295c-5.011,2.777-9.125,4.588-12.345,5.438l-1.074-0.693c-0.716-1.775-1.227-3.086-1.534-3.934
			c-0.613-1.619-0.92-3.086-0.92-4.396c0-7.711,0.971-16.118,2.914-25.219c1.584-7.559,3.936-15.85,7.055-24.873
			c2.147-6.248,4.984-13.805,8.511-22.675c-2.659,0-6.646-0.27-11.962-0.81c-5.317-0.539-9.304-0.81-11.962-0.81
			c-4.601,0-9.56,1.119-14.875,3.355c-7.157,3.008-10.735,7.057-10.735,12.147c0,2.854,0.767,5.168,2.3,6.941
			c1.84,1.312,3.706,2.623,5.598,3.933c0.153,0.618,0.318,1.331,0.499,2.14c0.178,0.81,0.268,1.408,0.268,1.793
			c0,0.771-0.128,1.677-0.383,2.718c-0.256,1.042-0.537,1.987-0.843,2.834l-2.837,1.967c-3.067,0-5.496-2.198-7.284-6.594
			c-1.534-3.778-2.301-8.136-2.301-13.073c0-3.47,0.767-6.363,2.301-8.676c0.46-0.694,1.482-2.005,3.067-3.934
			c6.134-7.326,10.684-11.992,13.649-13.998c4.141-2.776,9.661-4.165,16.563-4.165c4.191,0,8.383,0.173,12.575,0.521
			c4.191,0.347,8.651,0.694,13.38,1.041c4.729,0.347,8.652,0.521,11.771,0.521c0.204,0,0.434,0.116,0.69,0.347
			c0.255,0.231,0.408,0.387,0.46,0.463l0.843,2.43c-0.716,3.933-2.045,7.097-3.986,9.486c-0.512,0.078-1.01,0.135-1.496,0.173
			c-0.486,0.04-1.061,0.058-1.725,0.058c-0.665,0-1.662-0.038-2.99-0.116c-1.33-0.076-2.327-0.115-2.99-0.115
			c-4.193,9.795-7.771,20.129-10.735,31.004C468.699,286.166,466.885,297.31,466.885,306.334z"/>
		<path fill="#15EDFF" d="M519.18,242.358c0-4.241,1.941-8.058,5.826-11.453c3.477-3.008,6.773-4.512,9.893-4.512
			c2.606,0,4.396,1.197,5.367,3.586c0.613,1.466,1.227,4.667,1.84,9.602l-0.46,1.504l-0.997,0.579
			c-0.971-0.385-3.041-1.851-6.211-4.396c-1.533-1.232-2.836-2.042-3.91-2.429c-0.256,0.078-0.537,0.347-0.844,0.81
			c-0.307,0.463-0.46,0.926-0.46,1.389c0,3.163,1.674,8.118,5.022,14.866c3.348,6.75,5.022,10.625,5.022,11.626
			c0,2.623-1.227,4.436-3.681,5.437c-1.943,0.694-3.885,1.351-5.827,1.967c-1.278-0.694-2.53-1.233-3.757-1.62
			c-1.228-0.385-2.506-0.579-3.834-0.579c-3.119,0-5.879,0.965-8.281,2.893c-3.018,2.391-4.524,5.746-4.524,10.064
			c0,5.863,2.556,10.684,7.667,14.461c4.295,3.164,8.589,4.744,12.883,4.744c1.84,0,4.012-0.617,6.518-1.852
			c1.891-0.926,3.169-1.504,3.834-1.735l1.073,0.579l0.384,1.504c-1.125,3.008-4.627,5.553-10.506,7.635
			c-4.805,1.695-8.92,2.545-12.345,2.545c-5.214,0-9.661-1.851-13.342-5.553c-4.294-4.318-6.44-10.256-6.44-17.816
			c0-7.788,3.27-13.998,9.814-18.625c4.702-3.315,10.248-5.437,16.639-6.363c-2.096-4.165-3.477-7.095-4.141-8.792
			C519.92,248.646,519.18,245.291,519.18,242.358z"/>
		<path fill="#15EDFF" d="M597.238,293.607c0,3.549-3.834,7.135-11.502,10.76c-6.646,3.161-11.656,4.742-15.029,4.742
			c-6.545,0-12.346-2.968-17.406-8.907c-5.521-6.479-8.281-14.499-8.281-24.063c0-3.315,0.332-6.016,0.996-8.098
			c1.074-2.621,2.02-4.935,2.838-6.941c4.141-10.18,9.265-17.931,15.374-23.253c6.108-5.322,13.175-7.982,21.202-7.982
			c0.662,0,1.328,0,1.992,0s1.355-0.038,2.07-0.116c2.557,0,4.396,0.425,5.521,1.272c1.688,1.313,2.531,3.626,2.531,6.941
			c0,2.006-0.219,3.433-0.652,4.28c-0.436,0.85-1.316,1.62-2.646,2.314c-3.373-1.311-5.854-2.236-7.438-2.776
			c-2.811-1.001-5.393-1.504-7.744-1.504c-6.594,0-12.219,2.122-16.869,6.363c-5.521,5.014-8.281,12.263-8.281,21.749
			c0,7.481,2.363,14.596,7.093,21.344c4.728,6.75,9.571,10.123,14.53,10.123c1.074,0,2.121-0.232,3.145-0.695l17.328-7.172
			L597.238,293.607z"/>
		<path fill="#15EDFF" d="M646.311,306.334c0,0.23,0.063,0.617,0.191,1.156c0.127,0.539,0.27,1.041,0.422,1.504
			c0.408,0.231,0.83,0.463,1.266,0.694c0.434,0.231,0.805,0.423,1.111,0.578c4.344,0,9.738-3.124,16.18-9.37
			c4.141-4.01,7.131-6.633,8.971-7.867l0.998,0.578l0.459,1.504c-0.717,3.78-3.578,7.867-8.588,12.264
			c-4.09,3.623-9.1,7.057-15.029,10.295c-5.01,2.777-9.125,4.588-12.346,5.438l-1.072-0.693c-0.717-1.775-1.227-3.086-1.533-3.934
			c-0.613-1.619-0.92-3.086-0.92-4.396c0-7.711,0.969-16.118,2.912-25.219c1.584-7.559,3.936-15.85,7.055-24.873
			c2.146-6.248,4.984-13.805,8.512-22.675c-2.658,0-6.646-0.27-11.961-0.81c-5.318-0.539-9.305-0.81-11.963-0.81
			c-4.6,0-9.559,1.119-14.875,3.355c-7.158,3.008-10.736,7.057-10.736,12.147c0,2.854,0.768,5.168,2.301,6.941
			c1.84,1.312,3.707,2.623,5.598,3.933c0.154,0.618,0.318,1.331,0.498,2.14c0.18,0.81,0.27,1.408,0.27,1.793
			c0,0.771-0.129,1.677-0.385,2.718c-0.256,1.042-0.535,1.987-0.842,2.834l-2.838,1.967c-3.066,0-5.496-2.198-7.285-6.594
			c-1.533-3.778-2.299-8.136-2.299-13.073c0-3.47,0.766-6.363,2.299-8.676c0.461-0.694,1.482-2.005,3.068-3.934
			c6.135-7.326,10.684-11.992,13.648-13.998c4.141-2.776,9.662-4.165,16.563-4.165c4.191,0,8.383,0.173,12.574,0.521
			s8.652,0.694,13.381,1.041c4.729,0.347,8.652,0.521,11.771,0.521c0.203,0,0.434,0.116,0.689,0.347
			c0.256,0.231,0.408,0.387,0.459,0.463l0.844,2.43c-0.717,3.933-2.045,7.097-3.986,9.486c-0.512,0.078-1.01,0.135-1.496,0.173
			c-0.486,0.04-1.061,0.058-1.725,0.058c-0.666,0-1.662-0.038-2.99-0.116c-1.33-0.076-2.326-0.115-2.99-0.115
			c-4.193,9.795-7.771,20.129-10.736,31.004C648.125,286.166,646.311,297.31,646.311,306.334z"/>
		<path fill="#15EDFF" d="M685.186,307.143c-2.045,0-3.566-1.252-4.563-3.76c-0.996-2.505-1.494-5.379-1.494-8.618
			c0-5.553,0.662-11.298,1.992-17.237c1.023-4.627,2.633-9.872,4.832-15.733c0.408-1.079,2.402-6.092,5.98-15.04
			c0.715-2.93,1.457-5.86,2.223-8.792c0.051-0.154,0.434-0.443,1.15-0.868c0.715-0.423,1.354-0.828,1.918-1.215
			c1.635-1.542,2.887-2.718,3.756-3.528c0.869-0.81,1.508-1.215,1.918-1.215c1.021,0,1.533,0.85,1.533,2.545
			c0,0.541-1.33,4.396-3.986,11.568c-3.221,8.639-5.727,16.005-7.516,22.096c-2.76,9.333-4.141,16.39-4.141,21.171
			c0,0.463,0.039,0.983,0.115,1.562c0.076,0.579,0.217,1.292,0.422,2.141l1.688,1.735c4.189-1.695,8.92-7.636,14.186-17.816
			c1.123-2.158,5.393-11.607,12.805-28.343c4.703-10.565,8.23-16.735,10.582-18.51c1.072,0.618,1.84,1.813,2.301,3.586
			c-0.461,4.859-1.408,10.99-2.838,18.395c-1.789,9.486-2.914,15.657-3.373,18.51c-1.125,7.25-1.688,13.575-1.688,18.973
			c0,2.545,0.242,4.493,0.729,5.843c0.484,1.35,1.469,2.486,2.951,3.412c0.869-0.307,1.738-0.616,2.607-0.926l0.996,1.852
			c-0.256,0.771-1.762,2.507-4.523,5.205c-2.76,2.701-4.371,4.049-4.83,4.049c-2.506,0-4.41-1.561-5.713-4.685
			s-1.955-6.69-1.955-10.701c0-3.083,0.613-8.444,1.84-16.081c0.613-3.933,1.584-9.486,2.914-16.659
			c-3.221,6.941-6.135,12.881-8.742,17.816c-4.498,8.407-8.563,15.04-12.191,19.898C692.367,304.02,688.406,307.143,685.186,307.143
			z"/>
		<path fill="#15EDFF" d="M741.85,318.48l0.154,2.198l-1.15,2.776c-1.432,0.616-2.275,1.002-2.531,1.156
			c-1.227,0.617-2.07,0.964-2.529,1.041l-1.457-1.388c-0.104-0.462-0.205-0.983-0.307-1.562c-0.104-0.578-0.154-0.908-0.154-0.983
			c0-1.466,2.02-7.791,6.059-18.973c2.453-6.786,6.619-17.989,12.498-33.607s9.227-24.583,10.045-26.897
			c-6.287,0-10.543,0.405-12.768,1.215c-2.223,0.81-5.994,3.337-11.309,7.578l-1.15-0.926c-0.053-0.231-0.104-0.5-0.154-0.81
			c-0.205-0.848-0.307-1.388-0.307-1.62c0-1.388,0.934-4.261,2.799-8.619c1.865-4.356,3.26-6.959,4.18-7.809
			c0.203,0.078,0.625,0.271,1.266,0.579c0.639,0.309,1.061,0.463,1.264,0.463c2.352,0,7.873-0.81,16.563-2.43
			c4.141-0.77,7.488-1.157,10.045-1.157c7.26,0,12.652,1.099,16.18,3.297c3.527,2.198,5.291,5.458,5.291,9.776
			c0,0.85-0.152,1.659-0.461,2.429c-0.563,1.157-1.125,2.276-1.686,3.355c-2.098,5.708-5.035,10.258-8.818,13.651
			c-1.432,1.313-4.576,3.355-9.432,6.131c-3.324,1.929-5.496,4.049-6.518,6.363c0,4.243,1.814,9.527,5.443,15.849
			c3.629,6.325,6.875,9.486,9.738,9.486c1.584,0,2.965-0.5,4.141-1.504c1.842-1.927,3.682-3.855,5.521-5.784l1.227,2.313
			c-0.512,3.317-2.813,6.787-6.9,10.412c-3.887,3.393-7.029,5.09-9.432,5.09c-4.908,0-9.1-3.025-12.576-9.081
			c-3.477-6.054-5.213-12.859-5.213-20.419c0-6.632,2.223-11.876,6.67-15.733c1.688-1.464,5.828-3.855,12.422-7.172
			c4.498-2.236,6.748-4.666,6.748-7.289c0-2.467-1.201-4.396-3.604-5.784c-2.404-1.388-5.803-2.083-10.199-2.083h-2.377
			c-5.469,13.42-8.791,21.596-9.967,24.526c-3.783,9.564-6.953,18.087-9.508,25.566C746.424,301.437,743.844,310.227,741.85,318.48z
			"/>
		<path fill="#15EDFF" d="M817.301,242.358c0-4.241,1.943-8.058,5.828-11.453c3.477-3.008,6.773-4.512,9.893-4.512
			c2.605,0,4.395,1.197,5.367,3.586c0.613,1.466,1.227,4.667,1.84,9.602l-0.461,1.504l-0.996,0.579
			c-0.971-0.385-3.041-1.851-6.211-4.396c-1.533-1.232-2.838-2.042-3.91-2.429c-0.258,0.078-0.537,0.347-0.844,0.81
			c-0.307,0.463-0.461,0.926-0.461,1.389c0,3.163,1.674,8.118,5.023,14.866c3.348,6.75,5.021,10.625,5.021,11.626
			c0,2.623-1.227,4.436-3.68,5.437c-1.943,0.694-3.885,1.351-5.828,1.967c-1.277-0.694-2.529-1.233-3.758-1.62
			c-1.227-0.385-2.504-0.579-3.834-0.579c-3.117,0-5.879,0.965-8.281,2.893c-3.016,2.391-4.523,5.746-4.523,10.064
			c0,5.863,2.557,10.684,7.668,14.461c4.295,3.164,8.588,4.744,12.883,4.744c1.84,0,4.012-0.617,6.518-1.852
			c1.891-0.926,3.168-1.504,3.834-1.735l1.072,0.579l0.385,1.504c-1.125,3.008-4.627,5.553-10.506,7.635
			c-4.805,1.695-8.92,2.545-12.346,2.545c-5.213,0-9.66-1.851-13.342-5.553c-4.293-4.318-6.441-10.256-6.441-17.816
			c0-7.788,3.271-13.998,9.816-18.625c4.701-3.315,10.248-5.437,16.639-6.363c-2.098-4.165-3.477-7.095-4.141-8.792
			C818.041,248.646,817.301,245.291,817.301,242.358z"/>
	</g>
	<g>
		<g>
			<path fill="#00D4B8" d="M76.362,400c0.529-6.858,8.687-12.365,13.755-15.852c8.237-5.667,17.357-10.074,26.48-14.107
				c21.244-9.39,43.611-15.256,66.565-18.694c31.8-4.764,64.149-3.873,96.201-3.646c32.616,0.231,65.245,1.142,97.739,4.097
				c126.731,11.527,249.151,54.723,377.249,54.187c23.302-0.098,46.446-1.707,68.814-8.645c18.284-5.67,35.281-14.784,50.082-26.91
				c31.183-25.545,47.418-63.914,52.251-103.188c0.708-5.751-8.301-5.683-9,0c-5.131,41.693-24.646,80.909-60.176,104.611
				c-42.663,28.462-96.38,26.935-145.479,23.771c-63.852-4.114-126.705-17.252-189.35-29.593
				c-62.655-12.344-125.334-23.448-189.254-26.157c-30.738-1.303-61.517-1.27-92.277-1.27c-29.137,0-58.345,2.545-86.708,9.414
				c-18.045,4.37-35.568,11.104-52.167,19.401C88.428,373.748,68.61,383.841,67.362,400C66.915,405.791,75.918,405.748,76.362,400
				L76.362,400z"/>
		</g>
	</g>
	<g>
		<g>
			<path fill="#00D4B8" d="M919.705,269.358c-11.054,23.983-33.226,39.453-56.44,50.466c-27.866,13.219-58.384,20.752-88.802,25.15
				c-65.012,9.401-131.742,8.094-196.882,0.743c-42.626-4.81-84.656-13.599-127.501-16.649
				c-41.643-2.965-84.54-1.039-124.316,12.589c-1.819,0.623-1.038,3.521,0.798,2.893c62.674-21.473,130.881-13.845,194.973-3.827
				c64.038,10.009,128.14,15.915,193.017,12.801c43.26-2.076,86.899-7.314,127.879-21.918
				c31.548-11.243,65.194-28.898,79.865-60.732C923.099,269.128,920.514,267.604,919.705,269.358L919.705,269.358z"/>
		</g>
	</g>
	<path fill="#00D4B8" d="M605,345.5c-6,0-6,9,0,9C610,354.5,610,345.5,605,345.5z"/>
	<path fill="#00D4B8" d="M357,329.982c-6,0-6,9,0,9S363,329.982,357,329.982z"/>
	<path fill="#00D4B8" d="M382,326.534c-6,0-6,9,0,9S388,326.534,382,326.534z"/>
	<path fill="#00D4B8" d="M412,324.811c-6,0-6,9,0,9C417,333.811,417,324.811,412,324.811z"/>
	<path fill="#00D4B8" d="M440,325.673c-6,0-6,9,0,9S446,325.673,440,325.673z"/>
	<path fill="#00D4B8" d="M468,328.259c-6,0-6,9,0,9C473,337.259,473,328.259,468,328.259z"/>
	<path fill="#00D4B8" d="M493,331.707c-6,0-6,9,0,9C498,340.707,498,331.707,493,331.707z"/>
	<path fill="#00D4B8" d="M517,335.155c-6,0-6,9,0,9C522,344.155,522,335.155,517,335.155z"/>
	<path fill="#00D4B8" d="M537,338.604c-6,0-6,9,0,9C542,347.604,542,338.604,537,338.604z"/>
	<path fill="#00D4B8" d="M566,342.914c-6,0-6,9,0,9S572,342.914,566,342.914z"/>
	<path fill="#00D4B8" d="M634,347.225c-6,0-6,9,0,9S640,347.225,634,347.225z"/>
	<path fill="#00D4B8" d="M664,348.086c-6,0-6,9,0,9S670,348.086,664,348.086z"/>
	<path fill="#00D4B8" d="M693,347.225c-6,0-6,9,0,9C698,356.225,698,347.225,693,347.225z"/>
	<path fill="#00D4B8" d="M730,346.362c-6,0-6,9,0,9C735,355.362,735,346.362,730,346.362z"/>
	<path fill="#00D4B8" d="M755,343.775c-5,0-5,9,0,9C761,352.775,761,343.775,755,343.775z"/>
	<path fill="#00D4B8" d="M785,341.189c-6,0-6,9,0,9S791,341.189,785,341.189z"/>
	<path fill="#00D4B8" d="M817,333.431c-6,0-6,9,0,9C822,342.431,822,333.431,817,333.431z"/>
	<path fill="#00D4B8" d="M850,322.225c-5,0-5,9,0,9C856,331.225,856,322.225,850,322.225z"/>
	<path fill="#00D4B8" d="M880,307.569c-5,0-5,9,0,9C886,316.569,886,307.569,880,307.569z"/>
	<path fill="#00D4B8" d="M901,292.914c-6,0-6,9,0,9S907,292.914,901,292.914z"/>
</g>
</svg>
