<?xml version="1.0" encoding="utf-8"?>
<!-- Generator: Adobe Illustrator 16.0.3, SVG Export Plug-In . SVG Version: 6.00 Build 0)  -->
<!DOCTYPE svg PUBLIC "-//W3C//DTD SVG 1.1//EN" "http://www.w3.org/Graphics/SVG/1.1/DTD/svg11.dtd">
<svg version="1.1" id="レイヤー_1" xmlns="http://www.w3.org/2000/svg" xmlns:xlink="http://www.w3.org/1999/xlink" x="0px"
	 y="0px" width="595.28px" height="841.89px" viewBox="0 0 595.28 841.89" enable-background="new 0 0 595.28 841.89"
	 xml:space="preserve">
<g>
	<path fill="#686868" stroke="#070001" stroke-miterlimit="10" d="M140.803,360.342c-8.117,135.759-11.798,348.703-5.889,369.73
		c18.854,13.156,32.193,8.901,40.561,0c0.743-95.953-8.849-353.007-11.808-369.73C126.392,361.09,140.803,360.342,140.803,360.342z"
		/>
	<path fill="#686868" stroke="#070001" stroke-miterlimit="10" d="M235.343,240.541c0,74.485-39.578,134.875-88.41,134.875
		c-48.832,0-88.419-60.39-88.419-134.875c0-74.489,39.588-134.879,88.419-134.879C195.765,105.662,235.343,166.052,235.343,240.541z
		"/>
</g>
<g>
	<path fill="#686868" stroke="#070001" stroke-miterlimit="10" d="M460.675,360.338c-8.126,135.753-11.807,348.707-5.908,369.743
		c18.863,13.165,32.185,8.91,40.561,0c0.743-95.953-8.849-353.02-11.808-369.743C446.246,361.081,460.675,360.338,460.675,360.338z"
		/>
	<path fill="#686868" stroke="#070001" stroke-miterlimit="10" d="M453.07,372.168c-91.89,0-73.113-185.745-73.113-228.451
		c0-42.693,35.762-38.424,35.762-8.537c0,29.893,0,123.828,0,123.828s16.926,53.385,28.397-5.862c0-114.494,0-16.286,0-115.292
		c0,0,18.256-57.111,37.563,1.599c0,73.659,0,119.036,0,123.299c0,4.269,15.133,34.156,22.95-3.745c0-32.024-2.371-110.03,0-119.026
		c2.873-15.479,4.173-26.69,19.402-24.194c7.385,3.466,12.156,5.895,18.17,25.802c17.217,57.105,11.981,231.111-52.705,230.578
		C424.817,371.635,453.07,372.168,453.07,372.168z"/>
</g>
</svg>
