<?xml version="1.0" encoding="utf-8"?>
<!-- Generator: Adobe Illustrator 16.0.3, SVG Export Plug-In . SVG Version: 6.00 Build 0)  -->
<!DOCTYPE svg PUBLIC "-//W3C//DTD SVG 1.1//EN" "http://www.w3.org/Graphics/SVG/1.1/DTD/svg11.dtd">
<svg version="1.1" id="レイヤー_1" xmlns="http://www.w3.org/2000/svg" xmlns:xlink="http://www.w3.org/1999/xlink" x="0px"
	 y="0px" width="600px" height="200px" viewBox="0 0 600 200" enable-background="new 0 0 600 200" xml:space="preserve">
<path fill="none" stroke="#231815" stroke-width="3" stroke-miterlimit="10" d="M236.79,26.744v148.609c0,0-0.481,8.657-6.733,9.138
	s-7.215-7.696-7.215-7.696V96.96c0,0,0.482-5.771,0-5.771c-0.48,0-6.732-28.856-5.771-37.032s4.329-26.452,5.771-27.413
	c1.444-0.962,2.406-7.214,6.734-6.733C233.904,20.492,236.79,26.744,236.79,26.744z"/>
<path fill="none" stroke="#231815" stroke-width="3" stroke-miterlimit="10" d="M37.682,75.318v102.92c0,0-2.405,6.774-6.733,6.274
	c-4.329-0.502-5.772-6.755-5.772-6.755V75.318c0,0-8.175-6.251-8.656-10.099c-0.481-3.848,0-38.956,0-38.956
	s-1.924-2.886,1.923-3.608c3.848-0.721,5.291,2.165,5.291,2.165l-0.962,23.566c0,0,2.404,3.367,4.088,2.885
	c1.683-0.481,2.164-3.367,2.164-3.367V25.782c0,0-1.443-3.117,1.442-3.242c2.887-0.125,3.848,2.761,3.848,2.761l-0.481,23.085
	c0,0,0.481,1.923,3.848,1.923c3.367,0,3.367-2.885,3.367-2.885V25.301c0,0-0.962-3.124,1.924-2.764
	c2.886,0.359,3.366,2.764,3.366,2.764v39.917C46.339,65.219,41.049,72.433,37.682,75.318z"/>
<circle fill="none" stroke="#231815" stroke-width="3" stroke-miterlimit="10" cx="129.06" cy="102.251" r="79.595"/>
<text transform="matrix(1 0 0 1 281.0342 127.2354)" fill="#231815" font-family="'ComicSansMS'" font-size="57.8202">FOOD MAP</text>
<circle fill="none" stroke="#231815" stroke-width="3" stroke-miterlimit="10" cx="129.06" cy="102.251" r="48.093"/>
</svg>
